<svg width="81" height="84" viewBox="0 0 81 84" fill="none" xmlns="http://www.w3.org/2000/svg">
<path d="M48.8011 79.25H32.1989L29.9119 68.9566C27.1902 67.8924 24.6449 66.4231 22.3621 64.5985L12.3011 67.7654L4 53.3879L11.7698 46.2572C11.335 43.3681 11.335 40.4302 11.7698 37.5411L4 30.4062L12.3011 16.0287L22.3621 19.1956C24.6459 17.3692 27.1927 15.8985 29.9161 14.8334L32.1989 4.53998H48.8011L51.0881 14.8334C53.8098 15.8976 56.3551 17.3669 58.6379 19.1914L68.6989 16.0246L77 30.4021L69.2302 37.5328C69.6653 40.4219 69.6653 43.3598 69.2302 46.2489L77 53.3796L68.6989 67.7571L58.6379 64.5902C56.3557 66.4178 53.8103 67.8899 51.0881 68.9566L48.8011 79.25Z" stroke="#63E4A9" stroke-width="8" stroke-linecap="round" stroke-linejoin="round"/>
<path d="M40.4995 54.3466C47.3764 54.3466 52.9512 48.7718 52.9512 41.895C52.9512 35.0181 47.3764 29.4433 40.4995 29.4433C33.6227 29.4433 28.0479 35.0181 28.0479 41.895C28.0479 48.7718 33.6227 54.3466 40.4995 54.3466Z" stroke="#63E4A9" stroke-width="8"/>
</svg>
