<svg width="79" height="79" viewBox="0 0 79 79" fill="none" xmlns="http://www.w3.org/2000/svg">
<path d="M14.0021 0.291093C14.5007 0.530855 14.9215 0.906574 15.216 1.37499C15.5105 1.8434 15.6667 2.38546 15.6667 2.93876C15.6667 6.18959 16.8887 8.06176 18.4201 10.3413L18.5337 10.5058C19.834 12.4406 21.5417 14.9747 21.5417 18.6054C21.5417 22.3106 19.6734 25.5771 16.826 27.5158C17.5741 28.1425 18.236 28.9141 18.8078 29.8384C20.6722 32.8543 21.5417 37.4642 21.5417 44.0833C21.5417 50.7887 20.6408 58.8414 19.1721 65.2725C18.4436 68.4685 17.5388 71.4178 16.4618 73.6307C15.9252 74.7313 15.2711 75.8044 14.4643 76.6465C13.6574 77.4729 12.4158 78.3542 10.7708 78.3542C9.12584 78.3542 7.88425 77.4729 7.08134 76.6465C6.26358 75.7506 5.58973 74.7332 5.08384 73.6307C4.00284 71.4138 3.09809 68.4685 2.36959 65.2686C0.841878 58.3077 0.0476811 51.2059 3.77372e-06 44.0794C3.77372e-06 37.4603 0.869504 32.8543 2.73384 29.8384C3.26571 28.963 3.93486 28.1788 4.71567 27.5158C3.2617 26.5287 2.07167 25.2004 1.24962 23.6471C0.427575 22.0938 -0.00146799 20.3628 3.77372e-06 18.6054C3.77372e-06 17.1641 3.38505e-06 14.6848 1.50009 11.4849C2.96884 8.35159 5.76142 4.75218 10.8923 0.643594C11.3247 0.29769 11.8461 0.0810617 12.3963 0.0186927C12.9465 -0.0436763 13.5032 0.0507537 14.0021 0.291093ZM5.875 18.6015V18.6054C5.875 19.9039 6.39081 21.1492 7.30896 22.0673C8.22711 22.9855 9.47238 23.5013 10.7708 23.5013C12.0693 23.5013 13.3146 22.9855 14.2327 22.0673C15.1509 21.1492 15.6667 19.9039 15.6667 18.6054C15.6667 16.886 14.9421 15.6953 13.5438 13.6156L13.4968 13.5451C12.5999 12.2134 11.5385 10.635 10.7865 8.61009C8.65975 10.7721 7.48475 12.5659 6.82284 13.9759C5.875 15.9969 5.875 17.4343 5.875 18.5976V18.6015ZM7.7315 32.9248C6.76017 34.4993 5.875 37.7266 5.875 44.0833C5.875 50.3539 6.72884 57.9679 8.09575 63.9643C8.78509 66.9802 9.56842 69.4281 10.3635 71.0574C10.5084 71.359 10.6455 71.6097 10.7708 71.8212C10.8962 71.6097 11.0333 71.359 11.1782 71.0574C11.9733 69.4281 12.7566 66.9763 13.4459 63.9643C14.8168 57.9718 15.6667 50.3578 15.6667 44.0833C15.6667 37.7266 14.7815 34.4993 13.8102 32.9248C13.5172 32.3947 13.0744 31.9628 12.5373 31.6832C11.981 31.4409 11.377 31.3284 10.7708 31.3542C9.9875 31.3542 9.42742 31.4756 9.00442 31.6832C8.46723 31.9628 8.02445 32.3947 7.7315 32.9248ZM31.3333 50.5968C29.2583 50.2487 27.2399 49.6216 25.333 48.7324C25.4476 46.511 25.4803 44.2862 25.4309 42.0623C27.1973 43.2491 29.1909 44.1225 31.3333 44.6082V33.2929C31.3333 31.7348 31.9523 30.2405 33.0541 29.1387C34.1559 28.0369 35.6502 27.4179 37.2083 27.4179H52.875C52.8748 24.1306 51.9553 20.9089 50.2203 18.1168C48.4854 15.3246 46.0041 13.0733 43.0569 11.6172C40.1097 10.1611 36.814 9.5583 33.5422 9.87683C30.2704 10.1954 27.1529 11.4226 24.5418 13.4198C23.7585 11.2538 22.6423 9.59709 21.8668 8.44559L21.7101 8.2106C25.229 5.72996 29.3619 4.26372 33.6574 3.97193C37.9529 3.68015 42.246 4.57403 46.0681 6.556C49.8902 8.53798 53.0943 11.5319 55.3308 15.2108C57.5672 18.8898 58.75 23.1125 58.75 27.4179H72.4583C74.0165 27.4179 75.5108 28.0369 76.6126 29.1387C77.7144 30.2405 78.3333 31.7348 78.3333 33.2929V68.5429C78.3333 70.1011 77.7144 71.5954 76.6126 72.6972C75.5108 73.799 74.0165 74.4179 72.4583 74.4179H37.2083C35.6502 74.4179 34.1559 73.799 33.0541 72.6972C31.9523 71.5954 31.3333 70.1011 31.3333 68.5429V50.5928V50.5968ZM37.2083 50.8435V68.5468H72.4583V33.2968H58.0058C56.7856 38.0165 54.1287 42.2403 50.4028 45.3838C46.6768 48.5273 42.0661 50.4352 37.2083 50.8435ZM51.8723 33.2968H37.2083V44.9411C40.4991 44.5721 43.6196 43.2844 46.2128 41.2252C48.8061 39.166 50.7674 36.4184 51.8723 33.2968Z" fill="#60ADE6"/>
</svg>
