<svg width="204" height="97" viewBox="0 0 204 97" fill="none" xmlns="http://www.w3.org/2000/svg">
<path d="M196 92.8998C196 90.8998 197.6 89.2998 199.6 89.2998C201.6 89.2998 203.2 90.8998 203.2 92.8998C203.2 94.8998 201.6 96.4998 199.6 96.4998C197.6 96.4998 196 94.8998 196 92.8998Z" fill="#CBD6E0"/>
<path d="M196.1 75C196.1 73 197.7 71.5 199.6 71.5C201.6 71.5 203.1 73.1 203.1 75C203.1 77 201.5 78.5 199.6 78.5C197.7 78.5 196.1 76.9 196.1 75Z" fill="#CBD6E0"/>
<path d="M196.2 57.0001C196.2 55.1001 197.7 53.6001 199.6 53.6001C201.5 53.6001 203 55.1001 203 57.0001C203 58.9001 201.5 60.4001 199.6 60.4001C197.8 60.4001 196.2 58.9001 196.2 57.0001Z" fill="#CBD6E0"/>
<path d="M196.3 38.9997C196.3 37.1997 197.8 35.6997 199.6 35.6997C201.4 35.6997 202.9 37.1997 202.9 38.9997C202.9 40.7997 201.4 42.2997 199.6 42.2997C197.8 42.3997 196.3 40.8997 196.3 38.9997Z" fill="#CBD6E0"/>
<path d="M196.5 21.1C196.5 19.4 197.9 18 199.6 18C201.3 18 202.7 19.4 202.7 21.1C202.7 22.8 201.3 24.2 199.6 24.2C197.9 24.2 196.5 22.8 196.5 21.1Z" fill="#CBD6E0"/>
<path d="M196.5 3.10001C196.5 1.40001 197.9 -2.64344e-07 199.6 -1.70722e-07C201.3 -7.71003e-08 202.7 1.40001 202.7 3.10001C202.7 4.80001 201.3 6.20001 199.6 6.20001C197.9 6.20001 196.5 4.90001 196.5 3.10001Z" fill="#CBD6E0"/>
<path d="M177.9 92.9001C177.9 94.9988 179.601 96.7001 181.7 96.7001C183.799 96.7001 185.5 94.9988 185.5 92.9001C185.5 90.8014 183.799 89.1001 181.7 89.1001C179.601 89.1001 177.9 90.8014 177.9 92.9001Z" fill="#CBD6E0"/>
<path d="M178 74.9998C178 72.8998 179.7 71.2998 181.7 71.2998C183.8 71.2998 185.4 72.9998 185.4 74.9998C185.4 77.0998 183.7 78.6998 181.7 78.6998C179.6 78.6998 178 76.9998 178 74.9998Z" fill="#CBD6E0"/>
<path d="M178.1 56.9999C178.1 58.9881 179.712 60.5999 181.7 60.5999C183.688 60.5999 185.3 58.9881 185.3 56.9999C185.3 55.0117 183.688 53.3999 181.7 53.3999C179.712 53.3999 178.1 55.0117 178.1 56.9999Z" fill="#CBD6E0"/>
<path d="M178.4 38.9997C178.4 37.1997 179.9 35.6997 181.7 35.6997C183.5 35.6997 185 37.1997 185 38.9997C185 40.7997 183.5 42.2997 181.7 42.2997C179.9 42.2997 178.4 40.8997 178.4 38.9997Z" fill="#CBD6E0"/>
<path d="M178.8 21.0997C178.8 22.7013 180.098 23.9997 181.7 23.9997C183.302 23.9997 184.6 22.7013 184.6 21.0997C184.6 19.4981 183.302 18.1997 181.7 18.1997C180.098 18.1997 178.8 19.4981 178.8 21.0997Z" fill="#CBD6E0"/>
<path d="M179 3.0999C179 1.5999 180.2 0.399902 181.7 0.399902C183.2 0.399902 184.4 1.5999 184.4 3.0999C184.4 4.5999 183.2 5.7999 181.7 5.7999C180.2 5.8999 179 4.5999 179 3.0999Z" fill="#CBD6E0"/>
<path d="M160 92.9001C160 94.9988 161.701 96.7001 163.8 96.7001C165.899 96.7001 167.6 94.9988 167.6 92.9001C167.6 90.8014 165.899 89.1001 163.8 89.1001C161.701 89.1001 160 90.8014 160 92.9001Z" fill="#CBD6E0"/>
<path d="M160 74.9997C160 77.0984 161.701 78.7997 163.8 78.7997C165.899 78.7997 167.6 77.0984 167.6 74.9997C167.6 72.901 165.899 71.1997 163.8 71.1997C161.701 71.1997 160 72.901 160 74.9997Z" fill="#CBD6E0"/>
<path d="M160.1 56.9998C160.1 54.9998 161.7 53.2998 163.8 53.2998C165.8 53.2998 167.5 54.8998 167.5 56.9998C167.5 58.9998 165.9 60.6998 163.8 60.6998C161.7 60.6998 160.1 58.9998 160.1 56.9998Z" fill="#CBD6E0"/>
<path d="M160.4 38.9997C160.4 37.1997 161.9 35.6997 163.7 35.6997C165.5 35.6997 167 37.1997 167 38.9997C167 40.7997 165.5 42.2997 163.7 42.2997C161.9 42.3997 160.4 40.8997 160.4 38.9997Z" fill="#CBD6E0"/>
<path d="M160.5 21.0998C160.5 22.9223 161.977 24.3998 163.8 24.3998C165.623 24.3998 167.1 22.9223 167.1 21.0998C167.1 19.2773 165.623 17.7998 163.8 17.7998C161.977 17.7998 160.5 19.2773 160.5 21.0998Z" fill="#CBD6E0"/>
<path d="M160.9 3.0997C160.9 4.70133 162.198 5.99969 163.8 5.99969C165.402 5.99969 166.7 4.70133 166.7 3.0997C166.7 1.49808 165.402 0.199707 163.8 0.199707C162.198 0.199707 160.9 1.49807 160.9 3.0997Z" fill="#CBD6E0"/>
<path d="M142 92.9C142 90.8 143.7 89 145.9 89C148.1 89 149.8 90.7 149.8 92.9C149.8 95.1 148.1 96.8 145.9 96.8C143.7 96.8 142 95.1 142 92.9Z" fill="#CBD6E0"/>
<path d="M141.8 75C141.8 72.8 143.6 71 145.8 71C148 71 149.8 72.8 149.8 75C149.8 77.2 148 79 145.8 79C143.6 79 141.8 77.2 141.8 75Z" fill="#CBD6E0"/>
<path d="M142 56.9997C142 59.0984 143.701 60.7997 145.8 60.7997C147.899 60.7997 149.6 59.0984 149.6 56.9997C149.6 54.901 147.899 53.1997 145.8 53.1997C143.701 53.1997 142 54.901 142 56.9997Z" fill="#CBD6E0"/>
<path d="M142.6 38.9997C142.6 37.1997 144.1 35.6997 145.9 35.6997C147.7 35.6997 149.2 37.1997 149.2 38.9997C149.2 40.7997 147.7 42.2997 145.9 42.2997C144 42.2997 142.6 40.8997 142.6 38.9997Z" fill="#CBD6E0"/>
<path d="M142.8 21.1001C142.8 19.4001 144.1 18.1001 145.8 18.1001C147.4 18.1001 148.8 19.4001 148.8 21.1001C148.8 22.8001 147.5 24.1001 145.8 24.1001C144.2 24.1001 142.8 22.7001 142.8 21.1001Z" fill="#CBD6E0"/>
<path d="M143.1 3.0999C143.1 1.5999 144.3 0.399902 145.8 0.399902C147.3 0.399902 148.5 1.5999 148.5 3.0999C148.5 4.5999 147.3 5.7999 145.8 5.7999C144.3 5.8999 143.1 4.5999 143.1 3.0999Z" fill="#CBD6E0"/>
<path d="M124.4 92.8999C124.4 90.8999 126 89.3999 127.9 89.3999C129.8 89.3999 131.4 90.9999 131.4 92.8999C131.4 94.8999 129.8 96.3999 127.9 96.3999C126 96.4999 124.4 94.8999 124.4 92.8999Z" fill="#CBD6E0"/>
<path d="M124.5 75.0001C124.5 76.8779 126.022 78.4001 127.9 78.4001C129.778 78.4001 131.3 76.8779 131.3 75.0001C131.3 73.1223 129.778 71.6001 127.9 71.6001C126.022 71.6001 124.5 73.1223 124.5 75.0001Z" fill="#CBD6E0"/>
<path d="M124.3 56.9999C124.3 58.9881 125.912 60.5999 127.9 60.5999C129.888 60.5999 131.5 58.9881 131.5 56.9999C131.5 55.0117 129.888 53.3999 127.9 53.3999C125.912 53.3999 124.3 55.0117 124.3 56.9999Z" fill="#CBD6E0"/>
<path d="M124.8 38.9999C124.8 40.712 126.188 42.0999 127.9 42.0999C129.612 42.0999 131 40.712 131 38.9999C131 37.2878 129.612 35.8999 127.9 35.8999C126.188 35.8999 124.8 37.2878 124.8 38.9999Z" fill="#CBD6E0"/>
<path d="M125.4 21.1001C125.4 19.7001 126.5 18.6001 127.9 18.6001C129.3 18.6001 130.4 19.7001 130.4 21.1001C130.4 22.5001 129.3 23.6001 127.9 23.6001C126.5 23.6001 125.4 22.5001 125.4 21.1001Z" fill="#CBD6E0"/>
<path d="M125.6 3.09981C125.6 1.79981 126.6 0.799804 127.9 0.799805C129.2 0.799805 130.2 1.79981 130.2 3.09981C130.2 4.39981 129.2 5.39981 127.9 5.39981C126.6 5.39981 125.6 4.39981 125.6 3.09981Z" fill="#CBD6E0"/>
<path d="M106.9 92.8998C106.9 94.6119 108.288 95.9998 110 95.9998C111.712 95.9998 113.1 94.6119 113.1 92.8998C113.1 91.1877 111.712 89.7998 110 89.7998C108.288 89.7998 106.9 91.1877 106.9 92.8998Z" fill="#CBD6E0"/>
<path d="M106.7 74.9997C106.7 73.1997 108.2 71.6997 110 71.6997C111.8 71.6997 113.3 73.1997 113.3 74.9997C113.3 76.7997 111.8 78.2997 110 78.2997C108.2 78.2997 106.7 76.7997 106.7 74.9997Z" fill="#CBD6E0"/>
<path d="M106.7 56.9997C106.7 55.1997 108.2 53.6997 110 53.6997C111.8 53.6997 113.3 55.1997 113.3 56.9997C113.3 58.7997 111.8 60.2997 110 60.2997C108.2 60.2997 106.7 58.7997 106.7 56.9997Z" fill="#CBD6E0"/>
<path d="M106.8 38.9998C106.8 37.1998 108.2 35.7998 110 35.7998C111.8 35.7998 113.2 37.1998 113.2 38.9998C113.2 40.7998 111.8 42.1998 110 42.1998C108.2 42.1998 106.8 40.7998 106.8 38.9998Z" fill="#CBD6E0"/>
<path d="M107.6 21.0997C107.6 22.4252 108.674 23.4997 110 23.4997C111.325 23.4997 112.4 22.4252 112.4 21.0997C112.4 19.7742 111.325 18.6997 110 18.6997C108.674 18.6997 107.6 19.7742 107.6 21.0997Z" fill="#CBD6E0"/>
<path d="M107.9 3.10001C107.9 1.90001 108.8 1 110 1C111.2 1 112.1 1.90001 112.1 3.10001C112.1 4.30001 111.2 5.20001 110 5.20001C108.8 5.20001 107.9 4.30001 107.9 3.10001Z" fill="#CBD6E0"/>
<path d="M89.2999 92.8997C89.2999 91.3997 90.5 90.1997 92 90.1997C93.5 90.1997 94.7 91.3997 94.7 92.8997C94.7 94.3997 93.5 95.5997 92 95.5997C90.5 95.6997 89.2999 94.3997 89.2999 92.8997Z" fill="#CBD6E0"/>
<path d="M89.2 75.0001C89.2 73.4001 90.5 72.1001 92.1 72.1001C93.7 72.1001 95 73.4001 95 75.0001C95 76.6001 93.7 77.9001 92.1 77.9001C90.4 77.9001 89.2 76.6001 89.2 75.0001Z" fill="#CBD6E0"/>
<path d="M88.6999 56.9997C88.6999 58.8222 90.1774 60.2997 91.9999 60.2997C93.8225 60.2997 95.2999 58.8222 95.2999 56.9997C95.2999 55.1772 93.8225 53.6997 91.9999 53.6997C90.1774 53.6997 88.6999 55.1772 88.6999 56.9997Z" fill="#CBD6E0"/>
<path d="M88.5999 39.0001C88.5999 40.8779 90.1221 42.4001 91.9999 42.4001C93.8777 42.4001 95.3999 40.8779 95.3999 39.0001C95.3999 37.1223 93.8777 35.6001 91.9999 35.6001C90.1221 35.6001 88.5999 37.1223 88.5999 39.0001Z" fill="#CBD6E0"/>
<path d="M88.6999 21.0998C88.6999 22.9223 90.1774 24.3998 91.9999 24.3998C93.8225 24.3998 95.2999 22.9223 95.2999 21.0998C95.2999 19.2773 93.8225 17.7998 91.9999 17.7998C90.1774 17.7998 88.6999 19.2773 88.6999 21.0998Z" fill="#CBD6E0"/>
<path d="M89.5999 3.0997C89.5999 4.42518 90.6744 5.49969 91.9999 5.49969C93.3254 5.49969 94.3999 4.42518 94.3999 3.0997C94.3999 1.77422 93.3254 0.699707 91.9999 0.699707C90.6744 0.699707 89.5999 1.77422 89.5999 3.0997Z" fill="#CBD6E0"/>
<path d="M71.7999 92.9001C71.7999 91.6001 72.7999 90.6001 74.0999 90.6001C75.3999 90.6001 76.3999 91.6001 76.3999 92.9001C76.3999 94.2001 75.3999 95.2001 74.0999 95.2001C72.7999 95.2001 71.7999 94.2001 71.7999 92.9001Z" fill="#CBD6E0"/>
<path d="M71.7 75.0001C71.7 76.3256 72.7745 77.4001 74.1 77.4001C75.4255 77.4001 76.5 76.3256 76.5 75.0001C76.5 73.6746 75.4255 72.6001 74.1 72.6001C72.7745 72.6001 71.7 73.6746 71.7 75.0001Z" fill="#CBD6E0"/>
<path d="M71 56.9999C71 58.712 72.3879 60.0999 74.0999 60.0999C75.812 60.0999 77.2 58.712 77.2 56.9999C77.2 55.2878 75.812 53.8999 74.0999 53.8999C72.3879 53.8999 71 55.2878 71 56.9999Z" fill="#CBD6E0"/>
<path d="M71.1 39C71.1 37.3 72.4 36 74.1 36C75.7 36 77.1 37.3 77.1 39C77.1 40.7 75.8 42 74.1 42C72.5 42 71.1 40.7 71.1 39Z" fill="#CBD6E0"/>
<path d="M70.5 21.1C70.5 23.0882 72.1117 24.7 74.0999 24.7C76.0882 24.7 77.7 23.0882 77.7 21.1C77.7 19.1118 76.0882 17.5 74.0999 17.5C72.1117 17.5 70.5 19.1118 70.5 21.1Z" fill="#CBD6E0"/>
<path d="M71.3999 3.0999C71.3999 1.5999 72.5999 0.399902 74.0999 0.399902C75.5999 0.399902 76.7999 1.5999 76.7999 3.0999C76.7999 4.5999 75.5999 5.7999 74.0999 5.7999C72.5999 5.8999 71.3999 4.5999 71.3999 3.0999Z" fill="#CBD6E0"/>
<path d="M54.5 92.8998C54.5 91.9998 55.1999 91.2998 56.0999 91.2998C56.9999 91.2998 57.7 91.9998 57.7 92.8998C57.7 93.7998 56.9999 94.4998 56.0999 94.4998C55.2999 94.5998 54.5 93.7998 54.5 92.8998Z" fill="#CBD6E0"/>
<path d="M54.4999 74.9998C54.4999 75.9387 55.261 76.6998 56.1999 76.6998C57.1388 76.6998 57.8999 75.9387 57.8999 74.9998C57.8999 74.0609 57.1388 73.2998 56.1999 73.2998C55.261 73.2998 54.4999 74.0609 54.4999 74.9998Z" fill="#CBD6E0"/>
<path d="M54.2 57C54.2 58.1046 55.0954 59 56.2 59C57.3045 59 58.2 58.1046 58.2 57C58.2 55.8954 57.3045 55 56.2 55C55.0954 55 54.2 55.8954 54.2 57Z" fill="#CBD6E0"/>
<path d="M54.2999 38.9997C54.2999 37.9997 55.0999 37.1997 56.0999 37.1997C57.0999 37.1997 57.8999 37.9997 57.8999 38.9997C57.8999 39.9997 57.0999 40.7997 56.0999 40.7997C55.1999 40.8997 54.2999 40.0997 54.2999 38.9997Z" fill="#CBD6E0"/>
<path d="M54 21.1C54 19.9 54.9999 19 56.0999 19C57.2999 19 58.2 20 58.2 21.1C58.2 22.3 57.1999 23.2 56.0999 23.2C54.9999 23.2 54 22.3 54 21.1Z" fill="#CBD6E0"/>
<path d="M54.3 3.0997C54.3 4.14904 55.1506 4.99969 56.2 4.99969C57.2493 4.99969 58.1 4.14904 58.1 3.0997C58.1 2.05036 57.2493 1.19971 56.2 1.19971C55.1506 1.19971 54.3 2.05036 54.3 3.0997Z" fill="#CBD6E0"/>
<path d="M37 92.9001C37 92.2001 37.6 91.6001 38.3 91.6001C39 91.6001 39.6 92.2001 39.6 92.9001C39.6 93.6001 39 94.2001 38.3 94.2001C37.5 94.2001 37 93.6001 37 92.9001Z" fill="#CBD6E0"/>
<path d="M36.9999 74.9998C36.9999 74.2998 37.5999 73.7998 38.1999 73.7998C38.8999 73.7998 39.3999 74.3998 39.3999 74.9998C39.3999 75.6998 38.7999 76.1998 38.1999 76.1998C37.5999 76.1998 36.9999 75.6998 36.9999 74.9998Z" fill="#CBD6E0"/>
<path d="M36.8 57.0001C36.8 56.2001 37.4 55.6001 38.2 55.6001C39 55.6001 39.6 56.2001 39.6 57.0001C39.6 57.8001 39 58.4001 38.2 58.4001C37.5 58.4001 36.8 57.8001 36.8 57.0001Z" fill="#CBD6E0"/>
<path d="M36.8 39.0001C36.8 38.2001 37.4 37.6001 38.2 37.6001C39 37.6001 39.6 38.2001 39.6 39.0001C39.6 39.8001 39 40.4001 38.2 40.4001C37.5 40.5001 36.8 39.8001 36.8 39.0001Z" fill="#CBD6E0"/>
<path d="M36.7999 21.1001C36.7999 21.9285 37.4715 22.6001 38.2999 22.6001C39.1284 22.6001 39.7999 21.9285 39.7999 21.1001C39.7999 20.2717 39.1284 19.6001 38.2999 19.6001C37.4715 19.6001 36.7999 20.2717 36.7999 21.1001Z" fill="#CBD6E0"/>
<path d="M36.6 3.0999C36.6 2.1999 37.4 1.3999 38.3 1.3999C39.2 1.3999 40 2.1999 40 3.0999C40 3.9999 39.2 4.7999 38.3 4.7999C37.3 4.7999 36.6 4.0999 36.6 3.0999Z" fill="#CBD6E0"/>
<path d="M19.1 92.8997C19.1 92.1997 19.7 91.6997 20.3 91.6997C20.9 91.6997 21.5 92.2997 21.5 92.8997C21.5 93.5997 20.9 94.0997 20.3 94.0997C19.7 94.0997 19.1 93.5997 19.1 92.8997Z" fill="#CBD6E0"/>
<path d="M19.1 74.9998C19.1 74.2998 19.7 73.7998 20.3 73.7998C20.9 73.7998 21.5 74.3998 21.5 74.9998C21.5 75.6998 20.9 76.1998 20.3 76.1998C19.7 76.1998 19.1 75.6998 19.1 74.9998Z" fill="#CBD6E0"/>
<path d="M19 56.9997C19 57.7177 19.582 58.2997 20.3 58.2997C21.018 58.2997 21.6 57.7177 21.6 56.9997C21.6 56.2817 21.018 55.6997 20.3 55.6997C19.582 55.6997 19 56.2817 19 56.9997Z" fill="#CBD6E0"/>
<path d="M18.6 38.9998C18.6 38.0998 19.4 37.2998 20.3 37.2998C21.2 37.2998 22 38.0998 22 38.9998C22 39.8998 21.2 40.6998 20.3 40.6998C19.4 40.6998 18.6 39.9998 18.6 38.9998Z" fill="#CBD6E0"/>
<path d="M18.2999 21.1001C18.2999 22.2047 19.1954 23.1001 20.2999 23.1001C21.4045 23.1001 22.2999 22.2047 22.2999 21.1001C22.2999 19.9955 21.4045 19.1001 20.2999 19.1001C19.1954 19.1001 18.2999 19.9955 18.2999 21.1001Z" fill="#CBD6E0"/>
<path d="M18.6 3.0999C18.6 4.03878 19.3611 4.7999 20.3 4.7999C21.2389 4.7999 22 4.03878 22 3.0999C22 2.16102 21.2389 1.3999 20.3 1.3999C19.3611 1.3999 18.6 2.16102 18.6 3.0999Z" fill="#CBD6E0"/>
<path d="M1.19998 92.8997C1.19998 92.1997 1.69998 91.6997 2.39998 91.6997C3.09998 91.6997 3.59998 92.1997 3.59998 92.8997C3.59998 93.5997 3.09998 94.0997 2.39998 94.0997C1.69998 94.0997 1.19998 93.5997 1.19998 92.8997Z" fill="#CBD6E0"/>
<path d="M0.999985 74.9997C0.999985 74.2997 1.59999 73.6997 2.29999 73.6997C2.99999 73.6997 3.59998 74.2997 3.59998 74.9997C3.59998 75.6997 2.99999 76.2997 2.29999 76.2997C1.59999 76.2997 0.999985 75.6997 0.999985 74.9997Z" fill="#CBD6E0"/>
<path d="M1.09995 56.9997C1.09995 56.2997 1.69995 55.6997 2.39995 55.6997C3.09995 55.6997 3.69995 56.2997 3.69995 56.9997C3.69995 57.6997 3.09995 58.2997 2.39995 58.2997C1.69995 58.2997 1.09994 57.6997 1.09995 56.9997Z" fill="#CBD6E0"/>
<path d="M0.699982 38.9998C0.699982 39.9387 1.46109 40.6998 2.39998 40.6998C3.33886 40.6998 4.09998 39.9387 4.09998 38.9998C4.09998 38.0609 3.33886 37.2998 2.39998 37.2998C1.46109 37.2998 0.699982 38.0609 0.699982 38.9998Z" fill="#CBD6E0"/>
<path d="M-7.63772e-05 21.0997C-7.64232e-05 22.4252 1.07443 23.4997 2.39992 23.4997C3.7254 23.4997 4.79993 22.4252 4.79993 21.0997C4.79993 19.7742 3.7254 18.6997 2.39992 18.6997C1.07443 18.6997 -7.63312e-05 19.7742 -7.63772e-05 21.0997Z" fill="#CBD6E0"/>
<path d="M0.199982 3.0999C0.199982 4.31493 1.18495 5.2999 2.39998 5.2999C3.615 5.2999 4.59998 4.31493 4.59998 3.0999C4.59998 1.88487 3.61501 0.899902 2.39998 0.899902C1.18495 0.899902 0.199982 1.88487 0.199982 3.0999Z" fill="#CBD6E0"/>
</svg>
