<svg width="372" height="222" viewBox="0 0 372 222" fill="none" xmlns="http://www.w3.org/2000/svg">
<path fill-rule="evenodd" clip-rule="evenodd" d="M212.53 95.626C212.53 95.1461 212.624 94.671 212.809 94.2279C212.993 93.7848 213.263 93.3824 213.603 93.0439C213.943 92.7054 214.347 92.4374 214.79 92.2553C215.234 92.0732 215.71 91.9807 216.19 91.983C217.156 91.9863 218.084 92.3612 218.781 93.0298C219.478 93.6984 219.892 94.6096 219.936 95.5747C219.933 96.0823 219.831 96.5845 219.635 97.0526C219.438 97.5207 219.152 97.9456 218.791 98.303C218.431 98.6603 218.003 98.9431 217.534 99.1353C217.064 99.3275 216.561 99.4252 216.053 99.423C215.088 99.37 214.182 98.9445 213.524 98.2362C212.867 97.5279 212.511 96.5921 212.53 95.626Z" fill="#ACB9C5"/>
<path fill-rule="evenodd" clip-rule="evenodd" d="M212.53 64.8568C212.526 64.3779 212.617 63.9029 212.798 63.4598C212.98 63.0167 213.248 62.6143 213.588 62.2765C213.927 61.9386 214.331 61.6721 214.775 61.4925C215.219 61.3129 215.694 61.224 216.173 61.2308C217.141 61.23 218.071 61.6034 218.769 62.2729C219.467 62.9424 219.879 63.8561 219.919 64.8226C219.917 65.3294 219.814 65.8308 219.618 66.298C219.421 66.7651 219.134 67.1889 218.774 67.5448C218.413 67.9008 217.985 68.182 217.516 68.3724C217.046 68.5627 216.543 68.6583 216.036 68.6538C215.071 68.605 214.164 68.1802 213.509 67.4705C212.853 66.7607 212.502 65.8225 212.53 64.8568Z" fill="#ACB9C5"/>
<path fill-rule="evenodd" clip-rule="evenodd" d="M215.831 38.021C214.867 37.9217 213.983 37.4448 213.371 36.6946C212.758 35.9445 212.468 34.9824 212.564 34.0188C212.634 33.0538 213.08 32.1549 213.806 31.5152C214.532 30.8756 215.48 30.5463 216.446 30.5981C217.391 30.7113 218.261 31.1674 218.892 31.88C219.523 32.5926 219.87 33.512 219.867 34.4635C219.839 34.9633 219.712 35.4524 219.493 35.9026C219.274 36.3528 218.968 36.755 218.592 37.086C218.217 37.417 217.779 37.6701 217.305 37.8306C216.831 37.9911 216.33 38.0558 215.831 38.021Z" fill="#ACB9C5"/>
<path fill-rule="evenodd" clip-rule="evenodd" d="M243.316 95.7795C243.269 94.8232 243.603 93.8872 244.244 93.1759C244.885 92.4645 245.781 92.0355 246.737 91.9825C247.245 91.9641 247.751 92.0482 248.225 92.2299C248.7 92.4116 249.133 92.6872 249.499 93.04C249.864 93.3928 250.155 93.8158 250.353 94.2835C250.552 94.7513 250.654 95.2542 250.654 95.7623C250.591 96.7244 250.177 97.6296 249.489 98.305C248.801 98.9803 247.888 99.3782 246.925 99.4225C245.972 99.3921 245.066 98.9975 244.395 98.3198C243.724 97.6422 243.337 96.7331 243.316 95.7795Z" fill="#ACB9C5"/>
<path fill-rule="evenodd" clip-rule="evenodd" d="M243.317 64.942C243.304 64.4638 243.385 63.9876 243.557 63.5412C243.729 63.0949 243.988 62.6871 244.319 62.3417C244.65 61.9964 245.047 61.7203 245.485 61.5295C245.924 61.3387 246.396 61.2371 246.875 61.2305C247.382 61.2189 247.886 61.3099 248.357 61.4981C248.828 61.6863 249.256 61.9678 249.616 62.3257C249.975 62.6835 250.259 63.1104 250.449 63.5806C250.639 64.0507 250.732 64.5545 250.723 65.0617C250.647 66.0242 250.217 66.9243 249.515 67.5878C248.814 68.2513 247.891 68.631 246.926 68.6534C245.961 68.6224 245.046 68.2183 244.373 67.5261C243.699 66.8338 243.321 65.9075 243.317 64.942Z" fill="#ACB9C5"/>
<path fill-rule="evenodd" clip-rule="evenodd" d="M277.525 61.2311C278.004 61.2288 278.478 61.3215 278.921 61.5038C279.364 61.6861 279.767 61.9543 280.106 62.2931C280.444 62.6318 280.713 63.0343 280.895 63.4774C281.077 63.9204 281.17 64.3951 281.168 64.8742C281.202 65.3793 281.132 65.8861 280.963 66.3632C280.793 66.8402 280.527 67.2773 280.181 67.6473C279.836 68.0173 279.418 68.3123 278.953 68.514C278.489 68.7157 277.988 68.8198 277.482 68.8198C276.975 68.8198 276.475 68.7157 276.01 68.514C275.546 68.3123 275.128 68.0173 274.782 67.6473C274.436 67.2773 274.171 66.8402 274.001 66.3632C273.831 65.8861 273.762 65.3793 273.796 64.8742C273.798 64.3892 273.897 63.9094 274.086 63.4628C274.275 63.0162 274.551 62.6117 274.898 62.2727C275.245 61.9337 275.656 61.667 276.107 61.4882C276.558 61.3094 277.04 61.222 277.525 61.2311Z" fill="#ACB9C5"/>
<path fill-rule="evenodd" clip-rule="evenodd" d="M246.908 38.0211C246.43 38.0189 245.957 37.9217 245.516 37.735C245.076 37.5484 244.677 37.2761 244.343 36.9339C244.009 36.5918 243.746 36.1866 243.57 35.7419C243.393 35.2973 243.307 34.822 243.316 34.3438C243.307 33.3785 243.676 32.4478 244.344 31.751C245.012 31.0541 245.926 30.6465 246.891 30.6152C247.396 30.6197 247.896 30.7237 248.361 30.9212C248.826 31.1187 249.248 31.406 249.602 31.7665C249.956 32.1271 250.236 32.5538 250.425 33.0224C250.615 33.491 250.71 33.9924 250.705 34.4977C250.648 35.461 250.221 36.3651 249.514 37.0215C248.806 37.6779 247.873 38.036 246.908 38.0211Z" fill="#ACB9C5"/>
<path fill-rule="evenodd" clip-rule="evenodd" d="M277.525 38.021C276.558 38.0395 275.623 37.6765 274.922 37.0107C274.221 36.3449 273.81 35.4298 273.779 34.4635C273.765 33.9564 273.854 33.4518 274.04 32.9799C274.226 32.508 274.506 32.0786 274.862 31.7176C275.218 31.3565 275.644 31.0712 276.113 30.8788C276.583 30.6864 277.086 30.5909 277.593 30.598C278.559 30.638 279.472 31.0537 280.137 31.7565C280.801 32.4593 281.165 33.3938 281.151 34.3608C281.155 34.8399 281.065 35.315 280.885 35.7589C280.704 36.2028 280.438 36.6066 280.101 36.9469C279.764 37.2872 279.362 37.5574 278.92 37.7417C278.478 37.9261 278.004 38.021 277.525 38.021Z" fill="#ACB9C5"/>
<path fill-rule="evenodd" clip-rule="evenodd" d="M277.524 91.9834C278.003 91.9698 278.479 92.0513 278.925 92.2233C279.372 92.3954 279.779 92.6544 280.125 92.9855C280.47 93.3165 280.746 93.7129 280.937 94.1516C281.128 94.5903 281.229 95.0626 281.236 95.5409C281.279 96.5049 280.947 97.4481 280.309 98.1722C279.671 98.8962 278.777 99.3447 277.815 99.4234C277.31 99.4371 276.807 99.3502 276.336 99.1679C275.865 98.9855 275.434 98.7113 275.07 98.3612C274.705 98.0111 274.414 97.5921 274.213 97.1285C274.012 96.6649 273.905 96.166 273.898 95.6607C273.903 94.6956 274.285 93.7704 274.962 93.0832C275.64 92.396 276.559 92.0013 277.524 91.9834Z" fill="#ACB9C5"/>
<path fill-rule="evenodd" clip-rule="evenodd" d="M308.311 38.0213C307.343 38.0396 306.407 37.6738 305.709 37.0039C305.01 36.3339 304.605 35.4144 304.582 34.4466C304.568 33.9403 304.657 33.4365 304.844 32.9656C305.03 32.4946 305.31 32.0663 305.666 31.7066C306.023 31.3469 306.448 31.0632 306.918 30.8727C307.387 30.6822 307.89 30.5889 308.396 30.5983C309.361 30.6384 310.272 31.0546 310.934 31.7579C311.596 32.4612 311.956 33.3956 311.937 34.3611C311.944 34.8408 311.855 35.317 311.675 35.7619C311.496 36.2068 311.23 36.6115 310.892 36.9523C310.555 37.2931 310.152 37.5632 309.709 37.7467C309.266 37.9303 308.791 38.0236 308.311 38.0213Z" fill="#ACB9C5"/>
<path fill-rule="evenodd" clip-rule="evenodd" d="M311.988 95.6095C312.013 96.5619 311.673 97.4878 311.036 98.1971C310.4 98.9064 309.517 99.3452 308.567 99.4236C308.06 99.4352 307.556 99.3442 307.085 99.156C306.614 98.9678 306.186 98.6863 305.826 98.3284C305.467 97.9705 305.184 97.5437 304.993 97.0735C304.803 96.6033 304.71 96.0995 304.719 95.5924C304.732 94.6423 305.114 93.7346 305.785 93.0611C306.455 92.3876 307.361 92.0012 308.311 91.9836C308.792 91.9744 309.27 92.0616 309.717 92.2399C310.164 92.4183 310.57 92.6842 310.913 93.0221C311.256 93.3599 311.527 93.7628 311.712 94.2072C311.897 94.6515 311.99 95.1283 311.988 95.6095Z" fill="#ACB9C5"/>
<path fill-rule="evenodd" clip-rule="evenodd" d="M311.989 64.8742C312.007 65.8414 311.648 66.7777 310.987 67.4837C310.325 68.1898 309.415 68.6097 308.448 68.6541C307.942 68.6635 307.439 68.5702 306.969 68.3797C306.5 68.1892 306.074 67.9055 305.718 67.5458C305.361 67.1861 305.082 66.7578 304.895 66.2868C304.709 65.8159 304.62 65.312 304.634 64.8058C304.657 63.838 305.061 62.9185 305.76 62.2485C306.459 61.5786 307.395 61.2128 308.363 61.2311C308.842 61.2265 309.317 61.3177 309.76 61.4994C310.203 61.681 310.605 61.9495 310.943 62.2889C311.281 62.6284 311.547 63.0319 311.727 63.4759C311.907 63.9199 311.995 64.3953 311.989 64.8742Z" fill="#ACB9C5"/>
<path fill-rule="evenodd" clip-rule="evenodd" d="M246.944 7.13217C246.04 7.06959 245.195 6.66667 244.577 6.00479C243.959 5.3429 243.616 4.47137 243.616 3.56609C243.616 2.66081 243.959 1.78922 244.577 1.12733C245.195 0.465444 246.04 0.0625818 246.944 -1.83253e-07C247.847 0.0625819 248.692 0.465444 249.31 1.12733C249.928 1.78922 250.271 2.66081 250.271 3.56609C250.271 4.47137 249.928 5.3429 249.31 6.00479C248.692 6.66668 247.847 7.06959 246.944 7.13217Z" fill="#ACB9C5"/>
<path fill-rule="evenodd" clip-rule="evenodd" d="M219.697 3.72857C219.671 4.62764 219.302 5.48279 218.666 6.11879C218.03 6.75478 217.175 7.12347 216.276 7.14929C215.328 7.14929 214.419 6.77267 213.748 6.10229C213.078 5.43191 212.701 4.5227 212.701 3.57465C212.701 2.62659 213.078 1.71733 213.748 1.04695C214.419 0.376571 215.328 -2.40877e-07 216.276 -1.88666e-07C216.747 0.015258 217.21 0.124365 217.638 0.321006C218.067 0.517646 218.452 0.79785 218.77 1.14513C219.089 1.49241 219.335 1.89977 219.494 2.34339C219.653 2.78702 219.722 3.25796 219.697 3.72857Z" fill="#ACB9C5"/>
<path fill-rule="evenodd" clip-rule="evenodd" d="M274.103 3.4549C274.136 2.77191 274.369 2.1136 274.771 1.56102C275.174 1.00844 275.73 0.58571 276.37 0.344848C277.01 0.103986 277.706 0.0554928 278.373 0.20538C279.04 0.355267 279.649 0.696985 280.125 1.18844C280.6 1.6799 280.922 2.29964 281.049 2.97141C281.177 3.64317 281.106 4.33766 280.844 4.96931C280.582 5.60097 280.141 6.14224 279.575 6.52653C279.01 6.91082 278.344 7.12134 277.66 7.13216C277.182 7.13483 276.708 7.04065 276.268 6.85526C275.827 6.66987 275.428 6.39711 275.096 6.05348C274.764 5.70984 274.504 5.30245 274.333 4.85584C274.163 4.40923 274.084 3.93266 274.103 3.4549Z" fill="#ACB9C5"/>
<path fill-rule="evenodd" clip-rule="evenodd" d="M304.889 3.55727C304.916 2.87471 305.142 2.21491 305.539 1.6589C305.936 1.10288 306.486 0.674884 307.123 0.427488C307.76 0.180092 308.455 0.124071 309.123 0.266307C309.791 0.408542 310.403 0.742834 310.884 1.22812C311.365 1.71341 311.693 2.32856 311.829 2.99799C311.965 3.66742 311.902 4.36196 311.649 4.99631C311.396 5.63066 310.962 6.17717 310.403 6.56872C309.843 6.96027 309.181 7.17982 308.498 7.20034C308.019 7.20739 307.544 7.11772 307.101 6.9367C306.658 6.75568 306.255 6.48704 305.919 6.14687C305.582 5.8067 305.317 5.40198 305.14 4.95701C304.963 4.51204 304.878 4.03595 304.889 3.55727Z" fill="#ACB9C5"/>
<path fill-rule="evenodd" clip-rule="evenodd" d="M219.56 218.482C219.529 219.386 219.141 220.241 218.48 220.86C217.82 221.478 216.941 221.81 216.037 221.782C215.189 221.71 214.396 221.335 213.803 220.726C213.209 220.116 212.855 219.314 212.804 218.464C212.804 217.557 213.165 216.687 213.806 216.046C214.448 215.404 215.318 215.044 216.225 215.044C216.673 215.039 217.118 215.125 217.531 215.297C217.945 215.47 218.319 215.724 218.631 216.046C218.943 216.368 219.187 216.749 219.346 217.168C219.506 217.587 219.579 218.034 219.56 218.482Z" fill="#ACB9C5"/>
<path fill-rule="evenodd" clip-rule="evenodd" d="M212.805 187.849C212.83 186.95 213.199 186.095 213.835 185.459C214.471 184.823 215.326 184.454 216.225 184.428C217.072 184.451 217.88 184.788 218.493 185.372C219.106 185.957 219.48 186.748 219.543 187.592C219.583 188.04 219.531 188.491 219.391 188.917C219.25 189.344 219.024 189.737 218.726 190.074C218.429 190.41 218.065 190.682 217.659 190.873C217.252 191.064 216.811 191.17 216.362 191.184C215.909 191.202 215.456 191.13 215.031 190.972C214.605 190.814 214.216 190.572 213.885 190.262C213.554 189.951 213.288 189.578 213.102 189.164C212.917 188.75 212.816 188.303 212.805 187.849Z" fill="#ACB9C5"/>
<path fill-rule="evenodd" clip-rule="evenodd" d="M246.909 191.15C246.453 191.15 246.001 191.059 245.58 190.882C245.159 190.704 244.778 190.445 244.46 190.118C244.141 189.791 243.891 189.404 243.724 188.979C243.557 188.554 243.477 188.1 243.488 187.644C243.564 186.796 243.94 186.002 244.548 185.407C245.156 184.811 245.957 184.452 246.807 184.394C247.714 184.394 248.584 184.754 249.225 185.396C249.867 186.037 250.227 186.908 250.227 187.815C250.234 188.253 250.153 188.689 249.989 189.095C249.825 189.502 249.581 189.871 249.272 190.182C248.962 190.493 248.594 190.739 248.188 190.905C247.783 191.071 247.348 191.155 246.909 191.15Z" fill="#ACB9C5"/>
<path fill-rule="evenodd" clip-rule="evenodd" d="M308.311 191.15C307.404 191.15 306.534 190.79 305.893 190.148C305.251 189.507 304.891 188.637 304.891 187.729C304.904 187.279 305.006 186.835 305.191 186.424C305.377 186.013 305.642 185.642 305.971 185.334C306.3 185.026 306.687 184.785 307.109 184.627C307.531 184.469 307.98 184.395 308.431 184.411C309.279 184.484 310.072 184.859 310.665 185.468C311.259 186.078 311.613 186.88 311.664 187.729C311.664 188.625 311.313 189.485 310.686 190.124C310.059 190.764 309.207 191.132 308.311 191.15Z" fill="#ACB9C5"/>
<path fill-rule="evenodd" clip-rule="evenodd" d="M277.523 191.15C276.616 191.15 275.746 190.789 275.104 190.148C274.463 189.506 274.103 188.636 274.103 187.729C274.103 186.822 274.463 185.952 275.104 185.31C275.746 184.668 276.616 184.308 277.523 184.308C278.369 184.371 279.163 184.736 279.763 185.335C280.362 185.935 280.727 186.729 280.79 187.575C280.811 188.024 280.743 188.473 280.589 188.896C280.436 189.319 280.201 189.708 279.898 190.04C279.595 190.372 279.229 190.641 278.821 190.831C278.414 191.022 277.973 191.13 277.523 191.15Z" fill="#ACB9C5"/>
<path fill-rule="evenodd" clip-rule="evenodd" d="M304.891 218.276C304.939 217.375 305.342 216.529 306.012 215.924C306.682 215.318 307.563 215.002 308.465 215.044C309.313 215.099 310.11 215.467 310.702 216.077C311.293 216.687 311.636 217.496 311.664 218.345C311.638 219.244 311.269 220.099 310.633 220.735C309.997 221.371 309.142 221.74 308.243 221.765C307.794 221.757 307.351 221.659 306.939 221.479C306.527 221.299 306.155 221.039 305.844 220.715C305.533 220.391 305.288 220.009 305.125 219.591C304.961 219.172 304.882 218.726 304.891 218.276Z" fill="#ACB9C5"/>
<path fill-rule="evenodd" clip-rule="evenodd" d="M243.795 218.447C243.791 218.02 243.871 217.597 244.03 217.201C244.189 216.805 244.424 216.444 244.723 216.139C245.022 215.834 245.377 215.591 245.77 215.423C246.162 215.256 246.584 215.168 247.011 215.163C247.865 215.218 248.666 215.592 249.258 216.209C249.85 216.826 250.19 217.643 250.209 218.498C250.141 219.295 249.796 220.043 249.233 220.612C248.671 221.18 247.927 221.534 247.131 221.611C246.703 221.625 246.277 221.554 245.878 221.402C245.478 221.249 245.113 221.02 244.802 220.725C244.492 220.431 244.244 220.078 244.071 219.687C243.898 219.296 243.804 218.874 243.795 218.447Z" fill="#ACB9C5"/>
<path fill-rule="evenodd" clip-rule="evenodd" d="M246.84 129.491C246.025 129.42 245.268 129.043 244.72 128.436C244.172 127.829 243.875 127.037 243.888 126.219C243.901 125.402 244.223 124.619 244.79 124.03C245.357 123.441 246.126 123.088 246.942 123.043C247.386 123.019 247.829 123.086 248.245 123.24C248.661 123.395 249.041 123.633 249.361 123.941C249.681 124.248 249.934 124.618 250.105 125.028C250.275 125.438 250.36 125.878 250.352 126.322C250.345 126.766 250.247 127.203 250.064 127.608C249.88 128.012 249.615 128.374 249.286 128.671C248.956 128.968 248.569 129.194 248.148 129.336C247.727 129.477 247.282 129.53 246.84 129.491Z" fill="#ACB9C5"/>
<path fill-rule="evenodd" clip-rule="evenodd" d="M216.053 129.491C215.238 129.416 214.482 129.033 213.937 128.422C213.393 127.81 213.101 127.014 213.121 126.196C213.14 125.377 213.47 124.596 214.043 124.011C214.615 123.426 215.389 123.08 216.207 123.043C216.65 123.023 217.092 123.095 217.506 123.253C217.92 123.411 218.297 123.653 218.614 123.963C218.931 124.273 219.18 124.645 219.347 125.056C219.514 125.466 219.594 125.907 219.584 126.35C219.573 126.793 219.472 127.229 219.285 127.631C219.099 128.033 218.832 128.393 218.501 128.688C218.17 128.982 217.782 129.206 217.361 129.344C216.94 129.482 216.495 129.532 216.053 129.491Z" fill="#ACB9C5"/>
<path fill-rule="evenodd" clip-rule="evenodd" d="M280.791 126.207C280.804 126.841 280.629 127.465 280.29 128C279.951 128.536 279.462 128.96 278.883 129.219C278.305 129.479 277.663 129.563 277.037 129.46C276.411 129.358 275.83 129.074 275.364 128.643C274.899 128.213 274.57 127.655 274.42 127.039C274.269 126.423 274.302 125.777 274.516 125.18C274.73 124.583 275.115 124.062 275.622 123.682C276.13 123.302 276.738 123.08 277.371 123.043C278.235 123.041 279.068 123.366 279.703 123.953C280.338 124.54 280.727 125.345 280.791 126.207Z" fill="#ACB9C5"/>
<path fill-rule="evenodd" clip-rule="evenodd" d="M280.79 218.413C280.787 219.049 280.596 219.67 280.241 220.199C279.886 220.727 279.383 221.138 278.795 221.382C278.207 221.625 277.56 221.69 276.935 221.567C276.311 221.445 275.736 221.141 275.284 220.693C274.832 220.245 274.521 219.674 274.392 219.051C274.263 218.428 274.321 217.78 274.558 217.19C274.796 216.599 275.202 216.092 275.726 215.731C276.251 215.371 276.87 215.173 277.506 215.163C278.367 215.176 279.19 215.522 279.802 216.127C280.414 216.733 280.768 217.552 280.79 218.413Z" fill="#ACB9C5"/>
<path fill-rule="evenodd" clip-rule="evenodd" d="M308.447 129.509C307.577 129.51 306.739 129.181 306.104 128.586C305.468 127.992 305.083 127.178 305.027 126.31C305.021 125.678 305.201 125.057 305.544 124.526C305.888 123.995 306.38 123.576 306.959 123.322C307.538 123.067 308.179 122.988 308.803 123.095C309.426 123.201 310.005 123.488 310.467 123.92C310.929 124.352 311.254 124.91 311.402 125.525C311.55 126.14 311.514 126.785 311.299 127.38C311.084 127.975 310.699 128.494 310.192 128.872C309.686 129.25 309.079 129.472 308.447 129.509Z" fill="#ACB9C5"/>
<path fill-rule="evenodd" clip-rule="evenodd" d="M121.095 187.969C121.072 187.575 121.128 187.18 121.26 186.807C121.392 186.435 121.597 186.093 121.863 185.802C122.129 185.51 122.451 185.274 122.81 185.109C123.168 184.944 123.557 184.852 123.951 184.839C124.744 184.792 125.524 185.06 126.12 185.586C126.716 186.111 127.08 186.851 127.133 187.644C127.152 188.439 126.865 189.212 126.33 189.801C125.794 190.391 125.053 190.751 124.259 190.808C123.466 190.841 122.691 190.562 122.099 190.032C121.508 189.502 121.148 188.761 121.095 187.969Z" fill="#ACB9C5"/>
<path fill-rule="evenodd" clip-rule="evenodd" d="M62.7719 190.825C61.9794 190.8 61.225 190.479 60.658 189.925C60.091 189.371 59.7528 188.624 59.7103 187.832C59.7149 187.041 60.0322 186.284 60.593 185.726C61.1539 185.169 61.9126 184.856 62.7035 184.856C63.0975 184.842 63.4903 184.908 63.8582 185.05C64.2262 185.192 64.5616 185.406 64.8444 185.681C65.1272 185.956 65.3515 186.285 65.5038 186.649C65.6562 187.013 65.7334 187.403 65.7308 187.798C65.731 188.589 65.4215 189.349 64.8685 189.914C64.3154 190.48 63.5629 190.807 62.7719 190.825Z" fill="#ACB9C5"/>
<path fill-rule="evenodd" clip-rule="evenodd" d="M93.5752 190.824C92.7832 190.81 92.0252 190.5 91.4495 189.956C90.8738 189.412 90.5218 188.672 90.4623 187.883C90.4576 187.088 90.7651 186.324 91.3186 185.755C91.8721 185.185 92.6272 184.856 93.4212 184.838C93.8143 184.817 94.2076 184.876 94.5772 185.012C94.9468 185.148 95.285 185.357 95.5712 185.627C95.8575 185.898 96.0859 186.223 96.2426 186.584C96.3993 186.946 96.481 187.335 96.4827 187.729C96.5058 188.524 96.2129 189.297 95.668 189.877C95.1231 190.457 94.3706 190.798 93.5752 190.824Z" fill="#ACB9C5"/>
<path fill-rule="evenodd" clip-rule="evenodd" d="M339.098 98.4821C338.729 98.5007 338.361 98.4441 338.015 98.3158C337.669 98.1875 337.353 97.9901 337.086 97.7357C336.819 97.4813 336.606 97.1752 336.461 96.836C336.316 96.4968 336.241 96.1316 336.241 95.7627C336.213 95.0226 336.477 94.3011 336.977 93.754C337.476 93.2068 338.17 92.8778 338.91 92.838C339.652 92.8327 340.367 93.1146 340.905 93.6247C341.444 94.1347 341.765 94.8334 341.8 95.5745C341.814 95.9429 341.755 96.3105 341.626 96.6561C341.498 97.0016 341.303 97.3185 341.052 97.5885C340.801 97.8586 340.499 98.0765 340.164 98.2298C339.828 98.3831 339.466 98.4689 339.098 98.4821Z" fill="#ACB9C5"/>
<path fill-rule="evenodd" clip-rule="evenodd" d="M336.326 64.8054C336.353 64.0659 336.669 63.3665 337.206 62.8579C337.744 62.3492 338.459 62.072 339.199 62.086C339.939 62.1301 340.632 62.4598 341.133 63.0054C341.634 63.5511 341.904 64.2701 341.885 65.0107C341.874 65.3783 341.79 65.7402 341.638 66.0753C341.487 66.4105 341.271 66.7124 341.002 66.9636C340.733 67.2148 340.417 67.4103 340.073 67.5389C339.728 67.6675 339.362 67.7268 338.994 67.713C338.626 67.7046 338.263 67.6217 337.927 67.4696C337.591 67.3174 337.29 67.099 337.041 66.8274C336.792 66.5559 336.6 66.2368 336.477 65.8894C336.354 65.5419 336.303 65.1732 336.326 64.8054Z" fill="#ACB9C5"/>
<path fill-rule="evenodd" clip-rule="evenodd" d="M338.994 37.1661C338.626 37.1486 338.264 37.0586 337.931 36.9011C337.597 36.7437 337.298 36.522 337.05 36.2487C336.802 35.9755 336.61 35.656 336.486 35.3086C336.362 34.9613 336.308 34.5928 336.326 34.2243C336.33 33.8567 336.408 33.4938 336.557 33.1574C336.705 32.8211 336.92 32.5183 337.188 32.2673C337.457 32.0163 337.774 31.8223 338.119 31.6972C338.465 31.572 338.832 31.5182 339.199 31.539C339.567 31.5522 339.928 31.6381 340.263 31.7917C340.597 31.9452 340.898 32.1634 341.147 32.4337C341.397 32.704 341.591 33.021 341.717 33.3665C341.844 33.712 341.901 34.0791 341.885 34.4467C341.849 35.1862 341.528 35.8831 340.989 36.3904C340.45 36.8977 339.734 37.1758 338.994 37.1661Z" fill="#ACB9C5"/>
<path fill-rule="evenodd" clip-rule="evenodd" d="M338.994 6.41372C338.253 6.36953 337.559 6.03681 337.06 5.48692C336.561 4.93704 336.298 4.21373 336.326 3.4719C336.328 3.10288 336.404 2.73807 336.552 2.39969C336.699 2.06131 336.913 1.7564 337.182 1.50358C337.451 1.25077 337.769 1.05532 338.115 0.929114C338.462 0.80291 338.831 0.748607 339.199 0.769499C339.567 0.782692 339.928 0.868531 340.263 1.02208C340.597 1.17562 340.898 1.39385 341.147 1.66414C341.397 1.93443 341.591 2.25145 341.717 2.59693C341.844 2.94242 341.901 3.30956 341.885 3.67713C341.845 4.41675 341.523 5.113 340.985 5.62222C340.448 6.13143 339.735 6.41477 338.994 6.41372Z" fill="#ACB9C5"/>
<path fill-rule="evenodd" clip-rule="evenodd" d="M126.909 218.482C126.874 219.221 126.553 219.918 126.014 220.425C125.474 220.933 124.759 221.211 124.019 221.201C123.276 221.166 122.576 220.846 122.063 220.308C121.55 219.769 121.264 219.054 121.265 218.31C121.278 217.943 121.364 217.581 121.518 217.247C121.671 216.913 121.89 216.612 122.16 216.362C122.43 216.113 122.747 215.919 123.093 215.793C123.438 215.666 123.805 215.609 124.173 215.625C124.542 215.627 124.907 215.703 125.246 215.849C125.585 215.995 125.891 216.207 126.146 216.474C126.401 216.74 126.6 217.055 126.732 217.4C126.863 217.745 126.923 218.113 126.909 218.482Z" fill="#ACB9C5"/>
<path fill-rule="evenodd" clip-rule="evenodd" d="M154.533 221.184C153.8 221.078 153.134 220.697 152.671 220.12C152.207 219.542 151.98 218.81 152.035 218.071C152.138 217.335 152.525 216.668 153.113 216.214C153.701 215.76 154.444 215.555 155.182 215.642C155.548 215.676 155.903 215.783 156.227 215.956C156.55 216.13 156.836 216.366 157.067 216.651C157.298 216.936 157.47 217.265 157.572 217.617C157.674 217.97 157.705 218.339 157.663 218.704C157.564 219.442 157.183 220.114 156.599 220.577C156.015 221.039 155.274 221.257 154.533 221.184Z" fill="#ACB9C5"/>
<path fill-rule="evenodd" clip-rule="evenodd" d="M154.993 190.568C154.25 190.601 153.522 190.343 152.966 189.848C152.411 189.352 152.07 188.66 152.017 187.917C152.011 187.177 152.287 186.463 152.789 185.92C153.291 185.376 153.982 185.045 154.72 184.992C155.464 184.96 156.192 185.221 156.746 185.72C157.299 186.22 157.634 186.917 157.679 187.661C157.695 188.028 157.638 188.395 157.511 188.741C157.385 189.086 157.191 189.403 156.941 189.674C156.692 189.944 156.391 190.162 156.057 190.316C155.722 190.469 155.361 190.555 154.993 190.568Z" fill="#ACB9C5"/>
<path fill-rule="evenodd" clip-rule="evenodd" d="M90.7528 218.259C90.7558 217.891 90.8354 217.528 90.9864 217.192C91.1375 216.857 91.3568 216.557 91.6303 216.31C91.9038 216.064 92.2255 215.878 92.575 215.763C92.9245 215.648 93.2942 215.607 93.6604 215.642C94.3984 215.673 95.0943 215.995 95.5971 216.536C96.0998 217.077 96.3688 217.795 96.3457 218.533C96.2809 219.269 95.9397 219.954 95.3908 220.449C94.8418 220.944 94.1258 221.212 93.3867 221.201C93.0204 221.181 92.6616 221.09 92.3308 220.931C92.0001 220.772 91.7039 220.55 91.4592 220.277C91.2145 220.003 91.0261 219.685 90.9049 219.338C90.7837 218.992 90.732 218.625 90.7528 218.259Z" fill="#ACB9C5"/>
<path fill-rule="evenodd" clip-rule="evenodd" d="M59.9836 218.225C59.9932 217.856 60.0793 217.493 60.2364 217.159C60.3935 216.825 60.6183 216.527 60.8964 216.284C61.1745 216.042 61.4999 215.859 61.8521 215.749C62.2043 215.638 62.5756 215.602 62.9425 215.642C63.6791 215.687 64.369 216.018 64.8645 216.564C65.36 217.111 65.6217 217.83 65.5936 218.567C65.5163 219.305 65.1632 219.986 64.605 220.474C64.0468 220.963 63.3247 221.222 62.5833 221.201C61.8483 221.14 61.166 220.795 60.6808 220.24C60.1956 219.684 59.9455 218.962 59.9836 218.225Z" fill="#ACB9C5"/>
<path fill-rule="evenodd" clip-rule="evenodd" d="M32.0354 221.013C31.3548 220.945 30.7233 220.628 30.2622 220.123C29.8012 219.618 29.5434 218.96 29.5383 218.276C29.5865 217.59 29.8982 216.948 30.4081 216.486C30.9181 216.024 31.5869 215.777 32.2748 215.796C32.9584 215.844 33.5984 216.149 34.0652 216.651C34.532 217.153 34.7907 217.813 34.7891 218.498C34.7108 219.179 34.3889 219.809 33.8828 220.271C33.3767 220.733 32.7205 220.996 32.0354 221.013Z" fill="#ACB9C5"/>
<path fill-rule="evenodd" clip-rule="evenodd" d="M32.2748 190.397C31.588 190.412 30.9216 190.164 30.4125 189.702C29.9035 189.241 29.5906 188.602 29.5383 187.917C29.5396 187.232 29.7961 186.572 30.2579 186.066C30.7196 185.56 31.3534 185.244 32.0354 185.181C32.719 185.193 33.375 185.452 33.8815 185.912C34.3879 186.371 34.7104 186.999 34.7891 187.678C34.791 188.365 34.5329 189.027 34.0664 189.532C33.6 190.036 32.9599 190.345 32.2748 190.397Z" fill="#ACB9C5"/>
<path fill-rule="evenodd" clip-rule="evenodd" d="M339.097 221.013C338.412 221.002 337.756 220.737 337.256 220.269C336.757 219.801 336.449 219.164 336.394 218.481C336.389 217.797 336.647 217.136 337.115 216.636C337.583 216.136 338.225 215.836 338.908 215.796C339.596 215.789 340.26 216.043 340.768 216.507C341.275 216.97 341.589 217.608 341.645 218.293C341.623 218.979 341.353 219.633 340.884 220.133C340.415 220.634 339.779 220.946 339.097 221.013Z" fill="#ACB9C5"/>
<path fill-rule="evenodd" clip-rule="evenodd" d="M308.448 159.627C307.76 159.647 307.091 159.399 306.581 158.937C306.071 158.475 305.76 157.834 305.711 157.147C305.717 156.461 305.977 155.801 306.442 155.295C306.906 154.789 307.542 154.474 308.226 154.411C308.909 154.427 309.563 154.691 310.066 155.154C310.569 155.616 310.888 156.245 310.962 156.925C310.96 157.609 310.7 158.267 310.234 158.768C309.768 159.269 309.13 159.576 308.448 159.627Z" fill="#ACB9C5"/>
<path fill-rule="evenodd" clip-rule="evenodd" d="M274.959 157.096C274.971 156.408 275.241 155.749 275.717 155.251C276.192 154.754 276.838 154.454 277.525 154.411C278.208 154.437 278.858 154.713 279.353 155.185C279.847 155.658 280.152 156.295 280.21 156.976C280.218 157.32 280.158 157.662 280.034 157.982C279.91 158.303 279.723 158.596 279.486 158.844C279.249 159.093 278.964 159.292 278.65 159.431C278.335 159.57 277.997 159.645 277.653 159.653C277.309 159.661 276.968 159.601 276.647 159.477C276.327 159.352 276.034 159.166 275.785 158.929C275.537 158.691 275.337 158.407 275.198 158.093C275.06 157.778 274.984 157.44 274.976 157.096L274.959 157.096Z" fill="#ACB9C5"/>
<path fill-rule="evenodd" clip-rule="evenodd" d="M336.481 187.866C336.488 187.179 336.755 186.521 337.227 186.023C337.7 185.525 338.344 185.224 339.029 185.181C339.712 185.2 340.364 185.47 340.86 185.941C341.355 186.411 341.66 187.048 341.714 187.729C341.732 188.423 341.474 189.096 340.996 189.6C340.518 190.103 339.86 190.396 339.166 190.414C338.472 190.433 337.799 190.174 337.295 189.696C336.792 189.218 336.499 188.56 336.481 187.866Z" fill="#ACB9C5"/>
<path fill-rule="evenodd" clip-rule="evenodd" d="M249.559 156.976C249.569 157.659 249.311 158.318 248.841 158.813C248.372 159.308 247.727 159.601 247.045 159.627C246.358 159.633 245.695 159.372 245.194 158.901C244.694 158.429 244.395 157.782 244.36 157.096C244.379 156.41 244.652 155.756 245.126 155.26C245.6 154.764 246.241 154.461 246.925 154.411C247.61 154.419 248.265 154.69 248.755 155.167C249.245 155.645 249.533 156.292 249.559 156.976Z" fill="#ACB9C5"/>
<path fill-rule="evenodd" clip-rule="evenodd" d="M216.243 159.627C215.557 159.623 214.9 159.354 214.409 158.875C213.917 158.397 213.631 157.747 213.609 157.062C213.633 156.378 213.911 155.728 214.388 155.238C214.866 154.748 215.508 154.453 216.191 154.411C216.874 154.428 217.525 154.704 218.011 155.184C218.497 155.664 218.782 156.311 218.808 156.993C218.804 157.679 218.535 158.336 218.056 158.827C217.578 159.318 216.928 159.605 216.243 159.627Z" fill="#ACB9C5"/>
<path fill-rule="evenodd" clip-rule="evenodd" d="M124.224 6.12298C123.887 6.14629 123.549 6.10052 123.23 5.98852C122.911 5.87652 122.619 5.70068 122.371 5.47167C122.123 5.24267 121.924 4.96536 121.787 4.65679C121.649 4.34822 121.577 4.01487 121.573 3.67717C121.558 3.34026 121.61 3.00376 121.725 2.68691C121.841 2.37006 122.018 2.07903 122.246 1.83048C122.473 1.58192 122.748 1.38068 123.054 1.23826C123.359 1.09584 123.69 1.01505 124.027 1.00046C124.364 0.985856 124.7 1.03774 125.017 1.15318C125.334 1.26862 125.625 1.44535 125.874 1.67326C126.122 1.90117 126.324 2.17579 126.466 2.48147C126.608 2.78714 126.689 3.11791 126.704 3.45482C126.73 3.79597 126.685 4.13878 126.572 4.46173C126.459 4.78468 126.28 5.08077 126.047 5.33137C125.814 5.58197 125.532 5.78167 125.218 5.9179C124.905 6.05413 124.566 6.12396 124.224 6.12298Z" fill="#ACB9C5"/>
<path fill-rule="evenodd" clip-rule="evenodd" d="M93.5917 6.10614C93.2547 6.11737 92.9189 6.06216 92.6034 5.9436C92.2878 5.82504 91.9987 5.64551 91.7525 5.41522C91.2554 4.95013 90.9633 4.30657 90.9406 3.62615C90.9179 2.94572 91.1665 2.28414 91.6316 1.78697C92.0967 1.2898 92.7402 0.99774 93.4206 0.975059C94.101 0.952378 94.7626 1.20094 95.2598 1.66603C95.757 2.13112 96.049 2.77468 96.0717 3.4551C96.0944 4.13553 95.8458 4.79711 95.3807 5.29428C94.9156 5.79145 94.2721 6.08346 93.5917 6.10614Z" fill="#ACB9C5"/>
<path fill-rule="evenodd" clip-rule="evenodd" d="M62.8402 6.10546C62.5033 6.11781 62.1672 6.06373 61.8512 5.94621C61.5352 5.82869 61.2455 5.65004 60.9985 5.42054C60.7515 5.19105 60.5522 4.91517 60.4119 4.60864C60.2715 4.3021 60.1929 3.97094 60.1805 3.63403C60.1682 3.29712 60.2223 2.96107 60.3399 2.64507C60.4574 2.32908 60.636 2.03931 60.8655 1.79235C61.095 1.54538 61.3709 1.34601 61.6774 1.20566C61.984 1.06532 62.3151 0.986735 62.652 0.974382C63.3325 0.949433 63.9949 1.19581 64.4937 1.6593C64.9925 2.12279 65.2867 2.76544 65.3116 3.44586C65.3366 4.12629 65.0902 4.78878 64.6267 5.28755C64.1632 5.78632 63.5206 6.08051 62.8402 6.10546Z" fill="#ACB9C5"/>
<path fill-rule="evenodd" clip-rule="evenodd" d="M62.7203 36.8752C62.2186 36.8651 61.7311 36.7071 61.3188 36.421C60.9065 36.1349 60.5878 35.7334 60.4028 35.2669C60.2177 34.8004 60.1746 34.2898 60.2786 33.7988C60.3827 33.3079 60.6293 32.8586 60.9877 32.5074C61.3461 32.1561 61.8002 31.9184 62.2931 31.8242C62.786 31.7299 63.2957 31.7833 63.7584 31.9776C64.221 32.1719 64.6161 32.4985 64.8939 32.9164C65.1717 33.3343 65.32 33.8249 65.3201 34.3267C65.3201 34.6657 65.2526 35.0014 65.1213 35.3139C64.99 35.6265 64.7977 35.9098 64.5556 36.1471C64.3135 36.3845 64.0265 36.5711 63.7113 36.6961C63.3962 36.8211 63.0593 36.882 62.7203 36.8752Z" fill="#ACB9C5"/>
<path fill-rule="evenodd" clip-rule="evenodd" d="M65.3198 64.8907C65.3198 65.5711 65.0495 66.2237 64.5684 66.7048C64.0873 67.1859 63.4347 67.4562 62.7543 67.4562C62.0739 67.4562 61.4213 67.1859 60.9402 66.7048C60.4591 66.2237 60.1887 65.5711 60.1887 64.8907C60.1747 64.5535 60.2297 64.2172 60.3502 63.902C60.4707 63.5869 60.6543 63.2996 60.8896 63.0578C61.125 62.8161 61.4072 62.6249 61.719 62.496C62.0308 62.367 62.3656 62.3031 62.703 62.3081C63.0463 62.2988 63.3879 62.359 63.7073 62.4851C64.0267 62.6112 64.3174 62.8005 64.5618 63.0417C64.8062 63.2829 64.9993 63.5711 65.1296 63.8888C65.2598 64.2065 65.3246 64.5473 65.3198 64.8907Z" fill="#ACB9C5"/>
<path fill-rule="evenodd" clip-rule="evenodd" d="M62.703 93.1294C63.0413 93.1226 63.3777 93.1828 63.6927 93.3066C64.0077 93.4303 64.295 93.6152 64.5383 93.8504C64.7815 94.0857 64.9758 94.3668 65.1099 94.6775C65.244 94.9882 65.3154 95.3224 65.3198 95.6608C65.3244 95.9975 65.2617 96.3317 65.1355 96.6439C65.0092 96.9561 64.822 97.24 64.5847 97.479C64.3473 97.7179 64.0647 97.907 63.7533 98.0354C63.442 98.1637 63.1082 98.2286 62.7714 98.2263C62.091 98.2263 61.4384 97.956 60.9573 97.4749C60.4762 96.9937 60.2059 96.3412 60.2059 95.6608C60.2059 94.9803 60.4762 94.3278 60.9573 93.8466C61.4384 93.3655 62.091 93.0952 62.7714 93.0952L62.703 93.1294Z" fill="#ACB9C5"/>
<path fill-rule="evenodd" clip-rule="evenodd" d="M154.892 6.13961C154.554 6.14652 154.219 6.08546 153.906 5.96005C153.593 5.83465 153.308 5.64745 153.068 5.40964C152.829 5.17184 152.64 4.88829 152.512 4.57586C152.385 4.26344 152.322 3.92854 152.326 3.59113C152.33 3.09269 152.48 2.60637 152.759 2.19312C153.038 1.77986 153.432 1.45809 153.893 1.26815C154.354 1.07821 154.86 1.02854 155.349 1.12539C155.838 1.22225 156.288 1.46133 156.641 1.81261C156.995 2.16389 157.237 2.61173 157.337 3.10002C157.437 3.58832 157.391 4.09528 157.204 4.55739C157.017 5.01949 156.698 5.41615 156.287 5.69761C155.876 5.97907 155.39 6.13286 154.892 6.13961Z" fill="#ACB9C5"/>
<path fill-rule="evenodd" clip-rule="evenodd" d="M96.089 95.6436C96.1024 96.1549 95.9637 96.6587 95.6905 97.0911C95.4173 97.5234 95.0218 97.865 94.5543 98.0723C94.0867 98.2797 93.5682 98.3436 93.0643 98.2559C92.5604 98.1681 92.0939 97.9328 91.7239 97.5797C91.3539 97.2265 91.0971 96.7715 90.9861 96.2722C90.8751 95.7729 90.9148 95.2519 91.1002 94.7753C91.2856 94.2986 91.6084 93.8877 92.0276 93.5946C92.4468 93.3016 92.9436 93.1397 93.455 93.1294C93.7939 93.118 94.1317 93.1743 94.4486 93.2951C94.7655 93.416 95.055 93.5988 95.3003 93.833C95.5456 94.0671 95.7417 94.3479 95.8771 94.6588C96.0126 94.9697 96.0846 95.3045 96.089 95.6436Z" fill="#ACB9C5"/>
<path fill-rule="evenodd" clip-rule="evenodd" d="M90.9577 64.8397C90.9618 64.5028 91.0341 64.1703 91.1701 63.862C91.3061 63.5538 91.503 63.2763 91.7491 63.0462C91.9952 62.8161 92.2853 62.6382 92.602 62.5231C92.9186 62.4081 93.2553 62.3583 93.5917 62.3768C94.2721 62.3995 94.9156 62.6915 95.3807 63.1887C95.8458 63.6858 96.0944 64.3474 96.0717 65.0278C96.049 65.7083 95.757 66.3518 95.2598 66.8169C94.7626 67.282 94.101 67.5306 93.4206 67.5079C93.0807 67.504 92.7451 67.4308 92.4345 67.2927C92.1238 67.1546 91.8446 66.9545 91.614 66.7046C91.3835 66.4548 91.2063 66.1606 91.0934 65.8399C90.9806 65.5192 90.9344 65.1788 90.9577 64.8397Z" fill="#ACB9C5"/>
<path fill-rule="evenodd" clip-rule="evenodd" d="M90.9574 34.1731C90.9983 33.4926 91.3077 32.8563 91.8177 32.404C92.3277 31.9518 92.9965 31.7206 93.6769 31.7615C94.3573 31.8023 94.9937 32.1117 95.4459 32.6217C95.8982 33.1317 96.1293 33.8005 96.0885 34.4809C96.069 34.8173 95.9828 35.1465 95.8352 35.4495C95.6876 35.7524 95.4814 36.023 95.2285 36.2457C94.9756 36.4684 94.681 36.6387 94.3618 36.7468C94.0427 36.8549 93.7052 36.8986 93.369 36.8755C93.0311 36.8626 92.6993 36.7818 92.3934 36.6377C92.0874 36.4937 91.8137 36.2894 91.5886 36.0371C91.3635 35.7848 91.1915 35.4897 91.083 35.1694C90.9746 34.8491 90.9319 34.5102 90.9574 34.1731Z" fill="#ACB9C5"/>
<path fill-rule="evenodd" clip-rule="evenodd" d="M188.158 65.1308C188.131 65.6297 187.956 66.1093 187.657 66.5091C187.357 66.909 186.946 67.2112 186.475 67.3778C186.004 67.5444 185.494 67.5678 185.01 67.4452C184.525 67.3226 184.088 67.0593 183.753 66.6887C183.418 66.318 183.2 65.8565 183.127 65.3622C183.054 64.868 183.128 64.3631 183.342 63.9112C183.555 63.4593 183.897 63.0807 184.325 62.8229C184.753 62.5651 185.248 62.4397 185.747 62.4626C186.084 62.4685 186.416 62.5435 186.723 62.683C187.03 62.8225 187.305 63.0236 187.531 63.2737C187.757 63.5238 187.93 63.8177 188.037 64.1372C188.145 64.4566 188.186 64.7948 188.158 65.1308Z" fill="#ACB9C5"/>
<path fill-rule="evenodd" clip-rule="evenodd" d="M188.158 95.7968C188.143 96.1337 188.062 96.4645 187.92 96.7702C187.778 97.0758 187.576 97.3504 187.328 97.5784C187.079 97.8063 186.788 97.983 186.471 98.0984C186.155 98.2139 185.818 98.2658 185.481 98.2512C185.144 98.2366 184.814 98.1558 184.508 98.0134C184.202 97.8709 183.928 97.6697 183.7 97.4211C183.472 97.1726 183.295 96.8816 183.18 96.5647C183.064 96.2479 183.012 95.9114 183.027 95.5744C183.041 95.2375 183.122 94.9068 183.265 94.6011C183.407 94.2955 183.608 94.0209 183.857 93.7929C184.105 93.565 184.396 93.3883 184.713 93.2729C185.03 93.1574 185.367 93.1055 185.704 93.1201C186.04 93.1347 186.371 93.2155 186.677 93.3579C186.982 93.5004 187.257 93.7016 187.485 93.9502C187.713 94.1987 187.89 94.4897 188.005 94.8065C188.121 95.1234 188.172 95.4599 188.158 95.7968Z" fill="#ACB9C5"/>
<path fill-rule="evenodd" clip-rule="evenodd" d="M121.573 34.3443C121.573 33.6639 121.843 33.0114 122.325 32.5302C122.806 32.0491 123.458 31.7788 124.139 31.7788C124.819 31.7788 125.472 32.0491 125.953 32.5302C126.434 33.0114 126.704 33.6639 126.704 34.3443C126.704 35.0248 126.434 35.6773 125.953 36.1585C125.472 36.6396 124.819 36.9099 124.139 36.9099C123.458 36.9099 122.806 36.6396 122.325 36.1585C121.843 35.6773 121.573 35.0248 121.573 34.3443Z" fill="#ACB9C5"/>
<path fill-rule="evenodd" clip-rule="evenodd" d="M124.019 67.4738C123.515 67.46 123.026 67.2967 122.614 67.0046C122.203 66.7126 121.887 66.3049 121.707 65.8333C121.528 65.3617 121.492 64.8473 121.605 64.3555C121.718 63.8636 121.975 63.4164 122.342 63.0706C122.71 62.7247 123.172 62.4957 123.67 62.4127C124.167 62.3296 124.679 62.3962 125.138 62.604C125.598 62.8119 125.986 63.1516 126.253 63.5801C126.519 64.0085 126.653 64.5065 126.636 65.0109C126.634 65.347 126.564 65.6792 126.43 65.9874C126.296 66.2955 126.101 66.5732 125.856 66.8035C125.611 67.0339 125.322 67.2121 125.006 67.3273C124.691 67.4425 124.355 67.4924 124.019 67.4738Z" fill="#ACB9C5"/>
<path fill-rule="evenodd" clip-rule="evenodd" d="M188.157 34.3441C188.146 34.681 188.068 35.0124 187.929 35.3193C187.79 35.6263 187.591 35.9028 187.345 36.1331C187.099 36.3634 186.81 36.543 186.494 36.6615C186.179 36.7801 185.843 36.8353 185.506 36.8241C185.169 36.8129 184.838 36.7354 184.531 36.5961C184.224 36.4568 183.947 36.2584 183.717 36.0122C183.487 35.766 183.307 35.4769 183.189 35.1613C183.07 34.8458 183.015 34.5099 183.026 34.173C183.023 33.8355 183.09 33.5009 183.222 33.1904C183.354 32.8799 183.55 32.6002 183.795 32.3689C184.041 32.1375 184.332 31.9596 184.65 31.8462C184.968 31.7328 185.306 31.6865 185.643 31.7101C185.985 31.7047 186.324 31.7701 186.64 31.9022C186.955 32.0342 187.24 32.2301 187.476 32.4774C187.712 32.7248 187.894 33.0183 188.012 33.3396C188.129 33.6608 188.178 34.0028 188.157 34.3441Z" fill="#ACB9C5"/>
<path fill-rule="evenodd" clip-rule="evenodd" d="M152.326 95.626C152.341 94.9456 152.627 94.2994 153.119 93.8295C153.612 93.3596 154.271 93.1045 154.951 93.1203C155.631 93.1362 156.278 93.4218 156.748 93.9141C157.217 94.4065 157.473 95.0653 157.457 95.7457C157.449 96.0826 157.375 96.4147 157.238 96.723C157.102 97.0313 156.907 97.3097 156.663 97.5423C156.419 97.775 156.132 97.9574 155.818 98.0791C155.503 98.2007 155.168 98.2593 154.831 98.2514C154.494 98.2435 154.162 98.1694 153.854 98.0332C153.546 97.897 153.267 97.7015 153.035 97.4577C152.802 97.2139 152.62 96.9266 152.498 96.6123C152.376 96.2981 152.318 95.9629 152.326 95.626Z" fill="#ACB9C5"/>
<path fill-rule="evenodd" clip-rule="evenodd" d="M123.95 98.2256C123.445 98.2008 122.959 98.0261 122.553 97.7239C122.147 97.4216 121.841 97.0055 121.673 96.5285C121.504 96.0515 121.482 95.5352 121.608 95.0453C121.734 94.5554 122.003 94.114 122.38 93.7775C122.758 93.441 123.227 93.2245 123.728 93.1556C124.23 93.0867 124.74 93.1684 125.194 93.3905C125.649 93.6125 126.027 93.9648 126.281 94.4025C126.534 94.8402 126.652 95.3434 126.619 95.8482C126.608 96.1824 126.53 96.511 126.388 96.8139C126.247 97.1169 126.045 97.3878 125.795 97.6102C125.546 97.8327 125.253 98.0019 124.936 98.1077C124.619 98.2135 124.284 98.2536 123.95 98.2256Z" fill="#ACB9C5"/>
<path fill-rule="evenodd" clip-rule="evenodd" d="M152.326 34.3443C152.326 33.6639 152.597 33.0114 153.078 32.5302C153.559 32.0491 154.211 31.7788 154.892 31.7788C155.572 31.7788 156.225 32.0491 156.706 32.5302C157.187 33.0114 157.457 33.6639 157.457 34.3443C157.457 35.0248 157.187 35.6773 156.706 36.1585C156.225 36.6396 155.572 36.9099 154.892 36.9099C154.211 36.9099 153.559 36.6396 153.078 36.1585C152.597 35.6773 152.326 35.0248 152.326 34.3443Z" fill="#ACB9C5"/>
<path fill-rule="evenodd" clip-rule="evenodd" d="M154.84 62.3774C155.52 62.3774 156.173 62.6477 156.654 63.1289C157.135 63.61 157.406 64.2626 157.406 64.943C157.406 65.6234 157.135 66.2759 156.654 66.7571C156.173 67.2382 155.52 67.5085 154.84 67.5085C154.16 67.5085 153.507 67.2382 153.026 66.7571C152.545 66.2759 152.274 65.6234 152.274 64.943C152.274 64.2626 152.545 63.61 153.026 63.1289C153.507 62.6477 154.16 62.3774 154.84 62.3774Z" fill="#ACB9C5"/>
<path fill-rule="evenodd" clip-rule="evenodd" d="M157.234 126.225C157.242 126.535 157.189 126.843 157.078 127.132C156.966 127.422 156.799 127.686 156.585 127.911C156.372 128.136 156.116 128.316 155.833 128.442C155.549 128.568 155.244 128.637 154.934 128.645C154.624 128.653 154.316 128.599 154.026 128.488C153.737 128.377 153.472 128.209 153.247 127.996C153.023 127.782 152.842 127.526 152.716 127.243C152.59 126.96 152.522 126.654 152.514 126.344C152.502 126.036 152.553 125.729 152.663 125.441C152.773 125.153 152.94 124.89 153.154 124.668C153.368 124.446 153.625 124.27 153.908 124.149C154.192 124.029 154.497 123.967 154.806 123.967C155.113 123.956 155.42 124.005 155.709 124.112C155.998 124.219 156.262 124.383 156.488 124.592C156.714 124.802 156.896 125.054 157.024 125.334C157.152 125.614 157.223 125.917 157.234 126.225Z" fill="#ACB9C5"/>
<path fill-rule="evenodd" clip-rule="evenodd" d="M121.761 126.412C121.738 126.106 121.777 125.798 121.877 125.508C121.977 125.217 122.135 124.95 122.341 124.723C122.548 124.496 122.799 124.313 123.078 124.186C123.358 124.059 123.66 123.99 123.968 123.984C124.273 123.96 124.58 123.998 124.872 124.094C125.163 124.189 125.432 124.342 125.664 124.542C125.896 124.742 126.086 124.987 126.224 125.261C126.361 125.535 126.443 125.833 126.465 126.139C126.48 126.76 126.259 127.363 125.846 127.827C125.433 128.29 124.86 128.58 124.241 128.636C123.621 128.655 123.018 128.435 122.556 128.021C122.094 127.607 121.809 127.031 121.761 126.412Z" fill="#ACB9C5"/>
<path fill-rule="evenodd" clip-rule="evenodd" d="M123.934 159.405C123.315 159.345 122.744 159.047 122.339 158.576C121.935 158.104 121.728 157.495 121.762 156.874C121.778 156.566 121.858 156.264 121.995 155.987C122.132 155.711 122.324 155.465 122.559 155.265C122.795 155.065 123.068 154.915 123.363 154.824C123.658 154.733 123.969 154.703 124.276 154.736C124.583 154.754 124.884 154.832 125.16 154.966C125.437 155.1 125.685 155.288 125.888 155.519C126.092 155.75 126.248 156.019 126.347 156.31C126.446 156.601 126.486 156.909 126.465 157.216C126.393 157.831 126.093 158.397 125.624 158.802C125.156 159.207 124.553 159.422 123.934 159.405Z" fill="#ACB9C5"/>
<path fill-rule="evenodd" clip-rule="evenodd" d="M185.472 190.158C184.852 190.106 184.277 189.814 183.868 189.344C183.459 188.875 183.249 188.265 183.283 187.644C183.3 187.337 183.379 187.037 183.515 186.762C183.651 186.486 183.841 186.241 184.075 186.041C184.308 185.842 184.579 185.691 184.872 185.599C185.166 185.507 185.474 185.475 185.78 185.506C186.088 185.519 186.39 185.593 186.669 185.725C186.947 185.857 187.197 186.043 187.402 186.272C187.608 186.502 187.766 186.77 187.866 187.061C187.966 187.353 188.007 187.661 187.986 187.969C187.918 188.582 187.622 189.148 187.156 189.553C186.69 189.959 186.089 190.175 185.472 190.158Z" fill="#ACB9C5"/>
<path fill-rule="evenodd" clip-rule="evenodd" d="M188.004 218.327C188.018 218.642 187.968 218.956 187.858 219.251C187.747 219.546 187.578 219.816 187.361 220.044C187.144 220.273 186.883 220.455 186.594 220.58C186.305 220.705 185.993 220.771 185.678 220.773C185.37 220.789 185.061 220.742 184.771 220.635C184.481 220.528 184.216 220.363 183.992 220.15C183.768 219.937 183.589 219.681 183.468 219.397C183.346 219.113 183.283 218.807 183.284 218.498C183.291 217.878 183.534 217.285 183.963 216.837C184.391 216.389 184.974 216.121 185.593 216.086C186.197 216.108 186.773 216.346 187.216 216.757C187.659 217.169 187.939 217.726 188.004 218.327Z" fill="#ACB9C5"/>
<path fill-rule="evenodd" clip-rule="evenodd" d="M185.456 5.88347C185.148 5.86625 184.846 5.78751 184.569 5.65182C184.292 5.51614 184.045 5.32632 183.843 5.09354C183.64 4.86075 183.486 4.58971 183.39 4.2965C183.294 4.00329 183.258 3.69382 183.284 3.38636C183.293 3.06768 183.366 2.75411 183.499 2.46458C183.633 2.17505 183.824 1.91559 184.06 1.70178C184.297 1.48798 184.574 1.32427 184.875 1.22059C185.177 1.11691 185.496 1.07538 185.814 1.0985C186.132 1.12163 186.442 1.20894 186.725 1.35515C187.009 1.50136 187.26 1.70342 187.463 1.94919C187.666 2.19496 187.817 2.47932 187.907 2.78511C187.997 3.09091 188.024 3.41183 187.987 3.72845C187.926 4.34551 187.629 4.91489 187.156 5.31683C186.684 5.71877 186.075 5.92189 185.456 5.88347Z" fill="#ACB9C5"/>
<path fill-rule="evenodd" clip-rule="evenodd" d="M93.4897 128.653C92.8755 128.609 92.2979 128.344 91.864 127.907C91.4301 127.47 91.1692 126.891 91.1294 126.276C91.1515 125.659 91.4112 125.074 91.8542 124.644C92.2972 124.214 92.8893 123.971 93.5069 123.967C93.8133 123.955 94.1189 124.007 94.4045 124.118C94.6901 124.23 94.9495 124.4 95.1663 124.617C95.3832 124.833 95.5528 125.093 95.6646 125.378C95.7764 125.664 95.8279 125.97 95.8159 126.276C95.8075 126.895 95.5612 127.487 95.1282 127.93C94.6952 128.372 94.1085 128.632 93.4897 128.653Z" fill="#ACB9C5"/>
<path fill-rule="evenodd" clip-rule="evenodd" d="M369.798 190.158C369.182 190.158 368.587 189.931 368.126 189.521C367.666 189.111 367.372 188.547 367.301 187.934C367.291 187.319 367.518 186.724 367.935 186.272C368.352 185.819 368.927 185.545 369.541 185.506C369.847 185.477 370.155 185.512 370.446 185.608C370.737 185.703 371.006 185.858 371.235 186.061C371.465 186.265 371.65 186.514 371.779 186.792C371.908 187.07 371.979 187.371 371.987 187.678C372.02 188.296 371.809 188.902 371.4 189.365C370.99 189.829 370.415 190.114 369.798 190.158Z" fill="#ACB9C5"/>
<path fill-rule="evenodd" clip-rule="evenodd" d="M93.4897 159.422C92.8755 159.378 92.2979 159.113 91.864 158.676C91.4301 158.239 91.1692 157.66 91.1294 157.045C91.1472 156.426 91.4056 155.839 91.8495 155.408C92.2935 154.977 92.888 154.736 93.5069 154.736C93.8133 154.724 94.1189 154.776 94.4045 154.887C94.6901 154.999 94.9495 155.169 95.1663 155.386C95.3832 155.602 95.5528 155.862 95.6646 156.147C95.7764 156.433 95.8279 156.739 95.8159 157.045C95.8075 157.664 95.5612 158.256 95.1282 158.699C94.6952 159.141 94.1085 159.401 93.4897 159.422Z" fill="#ACB9C5"/>
<path fill-rule="evenodd" clip-rule="evenodd" d="M65.0627 156.993C65.0679 157.611 64.8341 158.207 64.4102 158.657C63.9862 159.106 63.405 159.374 62.788 159.405C62.1724 159.379 61.5872 159.13 61.1407 158.706C60.6942 158.281 60.4166 157.709 60.3592 157.096C60.3676 156.477 60.6138 155.885 61.0469 155.442C61.4799 155 62.0666 154.741 62.6853 154.719C62.9926 154.705 63.2995 154.753 63.5874 154.861C63.8753 154.969 64.1384 155.135 64.3606 155.347C64.5828 155.56 64.7596 155.816 64.8803 156.098C65.001 156.381 65.063 156.686 65.0627 156.993Z" fill="#ACB9C5"/>
<path fill-rule="evenodd" clip-rule="evenodd" d="M29.8134 3.45477C29.8486 2.83776 30.121 2.25825 30.5737 1.83747C31.0263 1.4167 31.6241 1.18725 32.2421 1.19708C32.8608 1.23241 33.4403 1.51139 33.8538 1.97298C34.2673 2.43456 34.4811 3.04115 34.4485 3.66C34.4467 3.96692 34.3824 4.27024 34.2594 4.55146C34.1365 4.83268 33.9575 5.08586 33.7334 5.29557C33.5093 5.50527 33.2447 5.6671 32.956 5.77112C32.6672 5.87515 32.3603 5.91918 32.054 5.90057C31.4354 5.8652 30.8552 5.5898 30.4367 5.13298C30.0182 4.67615 29.7946 4.07401 29.8134 3.45477Z" fill="#ACB9C5"/>
<path fill-rule="evenodd" clip-rule="evenodd" d="M32.087 36.6532C31.4684 36.631 30.8829 36.3683 30.455 35.9212C30.027 35.4741 29.7902 34.8776 29.7951 34.2587C29.8297 33.6399 30.098 33.0573 30.5456 32.6287C30.9933 32.2001 31.587 31.9574 32.2067 31.9497C32.8237 31.9808 33.404 32.2525 33.8229 32.7065C34.2418 33.1606 34.466 33.7609 34.4473 34.3784C34.4524 34.6858 34.3942 34.9911 34.2763 35.2751C34.1584 35.5591 33.9833 35.8157 33.7618 36.0291C33.5404 36.2425 33.2775 36.408 32.9893 36.5154C32.7012 36.6228 32.394 36.6697 32.087 36.6532Z" fill="#ACB9C5"/>
<path fill-rule="evenodd" clip-rule="evenodd" d="M29.8121 64.8053C29.8274 64.4997 29.9028 64.2002 30.0341 63.9238C30.1654 63.6474 30.35 63.3996 30.5772 63.1947C30.8044 62.9897 31.0698 62.8316 31.3582 62.7294C31.6466 62.6272 31.9523 62.5828 32.2579 62.5989C32.5651 62.6072 32.8674 62.678 33.1462 62.8072C33.4251 62.9364 33.6746 63.1211 33.8796 63.3501C34.0845 63.5791 34.2406 63.8475 34.3382 64.1389C34.4358 64.4303 34.4729 64.7386 34.4472 65.0448C34.4248 65.6633 34.1587 66.2479 33.7069 66.6709C33.255 67.0938 32.6542 67.3209 32.0355 67.3024C31.4187 67.2423 30.8473 66.9518 30.4352 66.489C30.023 66.0262 29.8006 65.4249 29.8121 64.8053Z" fill="#ACB9C5"/>
<path fill-rule="evenodd" clip-rule="evenodd" d="M29.8121 95.5748C29.8274 95.267 29.9033 94.9652 30.0354 94.6867C30.1676 94.4083 30.3534 94.1586 30.5822 93.9521C30.8109 93.7455 31.0782 93.5861 31.3687 93.483C31.6592 93.38 31.9671 93.3352 32.2749 93.3514C32.5814 93.3641 32.8822 93.4388 33.1591 93.5708C33.4361 93.7028 33.6834 93.8894 33.8863 94.1195C34.0892 94.3496 34.2435 94.6183 34.3399 94.9096C34.4363 95.2008 34.4728 95.5086 34.4471 95.8143C34.4361 96.1198 34.3649 96.4202 34.2377 96.6982C34.1105 96.9762 33.9298 97.2264 33.7058 97.4345C33.4818 97.6426 33.219 97.8045 32.9324 97.9109C32.6458 98.0174 32.341 98.0663 32.0355 98.0548C31.4186 98.0027 30.8449 97.717 30.4317 97.256C30.0184 96.7951 29.7968 96.1937 29.8121 95.5748Z" fill="#ACB9C5"/>
<path fill-rule="evenodd" clip-rule="evenodd" d="M62.7026 128.654C62.0886 128.605 61.513 128.336 61.0822 127.895C60.6514 127.455 60.3947 126.874 60.3594 126.259C60.3942 125.642 60.6631 125.061 61.1112 124.635C61.5593 124.209 62.1529 123.97 62.771 123.967C63.0777 123.962 63.3821 124.02 63.6658 124.137C63.9495 124.253 64.2063 124.427 64.4208 124.646C64.6353 124.865 64.8028 125.126 64.9132 125.412C65.0236 125.698 65.0745 126.004 65.0629 126.31C65.0455 126.929 64.7907 127.518 64.3513 127.954C63.9119 128.39 63.3216 128.641 62.7026 128.654Z" fill="#ACB9C5"/>
<path fill-rule="evenodd" clip-rule="evenodd" d="M341.389 126.208C341.403 126.837 341.168 127.446 340.736 127.904C340.304 128.362 339.709 128.631 339.08 128.653C338.454 128.619 337.864 128.346 337.432 127.892C337 127.437 336.757 126.835 336.754 126.208C336.77 125.635 337 125.088 337.399 124.677C337.798 124.265 338.337 124.018 338.909 123.984C339.222 123.948 339.539 123.978 339.839 124.074C340.139 124.169 340.415 124.327 340.65 124.537C340.884 124.747 341.071 125.005 341.199 125.293C341.326 125.581 341.391 125.893 341.389 126.208Z" fill="#ACB9C5"/>
<path fill-rule="evenodd" clip-rule="evenodd" d="M337.045 157.131C337.027 156.853 337.065 156.574 337.157 156.311C337.25 156.048 337.395 155.807 337.584 155.602C337.773 155.398 338.001 155.233 338.256 155.12C338.51 155.006 338.785 154.945 339.063 154.941C339.342 154.941 339.619 154.997 339.876 155.105C340.134 155.213 340.367 155.371 340.563 155.57C340.759 155.769 340.913 156.005 341.017 156.264C341.121 156.523 341.172 156.8 341.167 157.079C341.164 157.587 340.967 158.074 340.618 158.443C340.269 158.811 339.792 159.033 339.286 159.063C339.008 159.102 338.726 159.082 338.457 159.003C338.188 158.924 337.939 158.788 337.727 158.605C337.515 158.422 337.344 158.196 337.227 157.942C337.109 157.687 337.047 157.411 337.045 157.131Z" fill="#ACB9C5"/>
<path fill-rule="evenodd" clip-rule="evenodd" d="M154.874 159.098C154.594 159.098 154.316 159.042 154.058 158.935C153.8 158.827 153.565 158.669 153.368 158.471C153.171 158.272 153.015 158.036 152.909 157.777C152.804 157.518 152.75 157.24 152.753 156.96C152.796 156.397 153.056 155.874 153.476 155.497C153.897 155.121 154.447 154.922 155.01 154.942C155.515 154.986 155.987 155.212 156.339 155.576C156.691 155.94 156.899 156.42 156.926 156.926C156.942 157.205 156.901 157.485 156.806 157.748C156.71 158.011 156.561 158.252 156.369 158.455C156.177 158.658 155.945 158.82 155.688 158.931C155.431 159.042 155.154 159.098 154.874 159.098Z" fill="#ACB9C5"/>
<path fill-rule="evenodd" clip-rule="evenodd" d="M185.626 128.414C185.334 128.424 185.042 128.373 184.771 128.264C184.5 128.155 184.254 127.991 184.049 127.781C183.845 127.572 183.686 127.323 183.584 127.049C183.481 126.775 183.437 126.482 183.454 126.19C183.498 125.632 183.755 125.113 184.172 124.74C184.59 124.367 185.135 124.17 185.694 124.189C186.199 124.23 186.673 124.451 187.028 124.812C187.383 125.173 187.596 125.651 187.627 126.156C187.653 126.438 187.621 126.721 187.533 126.99C187.445 127.259 187.303 127.506 187.115 127.718C186.928 127.929 186.699 128.1 186.443 128.22C186.186 128.34 185.909 128.406 185.626 128.414Z" fill="#ACB9C5"/>
<path fill-rule="evenodd" clip-rule="evenodd" d="M32.2074 128.311C31.9281 128.328 31.6482 128.286 31.3863 128.188C31.1244 128.089 30.8863 127.936 30.6876 127.739C30.4889 127.542 30.3342 127.305 30.2335 127.044C30.1329 126.783 30.0886 126.504 30.1036 126.224C30.1053 125.717 30.2951 125.228 30.6362 124.852C30.9774 124.476 31.4457 124.24 31.9508 124.189C32.2286 124.166 32.5083 124.198 32.7735 124.283C33.0388 124.369 33.2844 124.507 33.496 124.688C33.7077 124.87 33.8812 125.091 34.0064 125.34C34.1316 125.589 34.2062 125.861 34.2256 126.139C34.2495 126.417 34.2148 126.697 34.1239 126.961C34.0331 127.225 33.8879 127.468 33.6978 127.672C33.5077 127.877 33.2769 128.039 33.0202 128.149C32.7635 128.259 32.4866 128.314 32.2074 128.311Z" fill="#ACB9C5"/>
<path fill-rule="evenodd" clip-rule="evenodd" d="M369.798 220.465C369.26 220.497 368.73 220.318 368.322 219.966C367.914 219.614 367.659 219.116 367.612 218.579C367.565 218.042 367.73 217.507 368.071 217.09C368.412 216.672 368.903 216.404 369.439 216.343C369.714 216.312 369.992 216.336 370.257 216.413C370.522 216.491 370.769 216.622 370.983 216.797C371.197 216.971 371.374 217.187 371.503 217.432C371.633 217.676 371.712 217.944 371.736 218.219C371.76 218.495 371.728 218.772 371.643 219.035C371.558 219.298 371.421 219.542 371.241 219.751C371.06 219.96 370.839 220.131 370.592 220.254C370.344 220.377 370.074 220.448 369.798 220.465Z" fill="#ACB9C5"/>
<path fill-rule="evenodd" clip-rule="evenodd" d="M32.242 158.841C31.7679 158.888 31.2944 158.746 30.9255 158.444C30.5567 158.143 30.3227 157.707 30.2751 157.233C30.2274 156.759 30.37 156.285 30.6715 155.916C30.9731 155.548 31.4088 155.314 31.8828 155.266C32.1314 155.24 32.3827 155.264 32.622 155.336C32.8612 155.409 33.0837 155.528 33.2764 155.687C33.4691 155.846 33.6281 156.042 33.7441 156.264C33.8602 156.485 33.931 156.727 33.9523 156.976C33.9425 157.442 33.7635 157.888 33.4487 158.231C33.1339 158.574 32.7049 158.791 32.242 158.841Z" fill="#ACB9C5"/>
<path fill-rule="evenodd" clip-rule="evenodd" d="M185.661 158.858C185.219 158.823 184.804 158.631 184.491 158.318C184.178 158.004 183.986 157.59 183.951 157.148C183.951 156.683 184.136 156.237 184.464 155.908C184.793 155.579 185.239 155.395 185.704 155.395C186.169 155.395 186.615 155.579 186.944 155.908C187.272 156.237 187.457 156.683 187.457 157.148C187.416 157.602 187.211 158.026 186.881 158.341C186.55 158.655 186.117 158.839 185.661 158.858Z" fill="#ACB9C5"/>
<path fill-rule="evenodd" clip-rule="evenodd" d="M367.883 157.113C367.877 156.645 368.051 156.193 368.37 155.849C368.688 155.505 369.126 155.297 369.593 155.266C369.818 155.243 370.045 155.264 370.262 155.329C370.478 155.393 370.68 155.5 370.855 155.643C371.03 155.787 371.174 155.963 371.281 156.162C371.387 156.362 371.453 156.58 371.474 156.806C371.503 157.054 371.48 157.305 371.409 157.544C371.337 157.783 371.218 158.006 371.058 158.198C370.898 158.389 370.701 158.547 370.479 158.66C370.256 158.774 370.013 158.841 369.764 158.858C369.292 158.844 368.842 158.66 368.496 158.339C368.15 158.018 367.932 157.583 367.883 157.113Z" fill="#ACB9C5"/>
<path fill-rule="evenodd" clip-rule="evenodd" d="M367.882 34.3443C367.918 33.9024 368.109 33.4875 368.423 33.1741C368.736 32.8606 369.151 32.6691 369.593 32.6339C369.841 32.6311 370.086 32.6822 370.312 32.7838C370.539 32.8853 370.74 33.0347 370.903 33.2218C371.065 33.4089 371.186 33.6292 371.255 33.8673C371.324 34.1054 371.34 34.3557 371.303 34.6008C371.26 35.0456 371.044 35.4558 370.702 35.7435C370.36 36.0312 369.919 36.1735 369.473 36.1401C369.033 36.0895 368.627 35.8782 368.334 35.5468C368.04 35.2153 367.879 34.787 367.882 34.3443Z" fill="#ACB9C5"/>
<path fill-rule="evenodd" clip-rule="evenodd" d="M371.389 64.7365C371.453 65.1856 371.335 65.6415 371.062 66.0039C370.79 66.3664 370.384 66.6057 369.935 66.6692C369.686 66.7027 369.433 66.6841 369.192 66.6145C368.95 66.545 368.726 66.426 368.533 66.2652C368.34 66.1044 368.183 65.9052 368.071 65.6803C367.959 65.4555 367.895 65.2098 367.883 64.9589C367.883 64.5053 368.063 64.0702 368.384 63.7495C368.705 63.4287 369.14 63.2485 369.593 63.2485C370.025 63.2233 370.451 63.3628 370.784 63.6389C371.117 63.9151 371.334 64.3073 371.389 64.7365Z" fill="#ACB9C5"/>
<path fill-rule="evenodd" clip-rule="evenodd" d="M369.576 93.9502C370.024 93.9219 370.466 94.071 370.805 94.3655C371.144 94.6599 371.354 95.0759 371.389 95.5237C371.442 95.9699 371.318 96.4193 371.043 96.7746C370.767 97.1298 370.363 97.3625 369.918 97.4222C369.67 97.4531 369.419 97.4326 369.18 97.3618C368.94 97.2911 368.718 97.1717 368.527 97.0112C368.336 96.8506 368.18 96.6523 368.069 96.4288C367.958 96.2052 367.895 95.9611 367.883 95.7119C367.876 95.4844 367.914 95.2579 367.996 95.0455C368.078 94.8332 368.201 94.6393 368.359 94.4752C368.517 94.3112 368.706 94.1802 368.915 94.0901C369.124 93.9999 369.348 93.9524 369.576 93.9502Z" fill="#ACB9C5"/>
<path fill-rule="evenodd" clip-rule="evenodd" d="M369.747 5.26789C369.294 5.26789 368.859 5.08766 368.538 4.76691C368.217 4.44616 368.037 4.01114 368.037 3.55753C368.037 3.10391 368.217 2.6689 368.538 2.34815C368.859 2.02739 369.294 1.84717 369.747 1.84717C370.201 1.84717 370.636 2.02739 370.957 2.34815C371.278 2.6689 371.458 3.10391 371.458 3.55753C371.458 4.01114 371.278 4.44616 370.957 4.76691C370.636 5.08766 370.201 5.26789 369.747 5.26789Z" fill="#ACB9C5"/>
<path fill-rule="evenodd" clip-rule="evenodd" d="M0.0359268 3.40339C0.0566051 3.21365 0.11577 3.03011 0.209844 2.86404C0.303918 2.69798 0.430882 2.55289 0.582994 2.4376C0.735105 2.32232 0.909148 2.23927 1.09446 2.19359C1.27978 2.14791 1.47247 2.14054 1.66074 2.17192C1.98222 2.2478 2.26935 2.42846 2.47682 2.68548C2.6843 2.9425 2.80035 3.26125 2.8067 3.5915C2.80229 3.78392 2.75969 3.97354 2.68143 4.14937C2.60317 4.32521 2.49078 4.48379 2.35077 4.61585C2.21076 4.74791 2.04592 4.85083 1.86582 4.91869C1.68571 4.98654 1.49392 5.01797 1.30158 5.01113C1.11237 4.98996 0.929288 4.93138 0.762913 4.83883C0.596538 4.74628 0.450216 4.62159 0.332452 4.47199C0.214689 4.3224 0.127804 4.15092 0.0769007 3.96747C0.0259971 3.78402 0.012082 3.59227 0.0359268 3.40339Z" fill="#ACB9C5"/>
<path fill-rule="evenodd" clip-rule="evenodd" d="M1.48882 35.7634C1.10161 35.7681 0.728223 35.6198 0.449648 35.3508C0.171072 35.0819 0.00979179 34.7139 0.000813911 34.3268C0.0147071 33.998 0.135987 33.6829 0.346039 33.4296C0.556091 33.1763 0.843379 32.9988 1.1639 32.9243C1.36042 32.8807 1.5639 32.8788 1.76118 32.9189C1.95846 32.9589 2.14514 33.04 2.30908 33.1569C2.47302 33.2737 2.61056 33.4237 2.71282 33.5971C2.81507 33.7705 2.87971 33.9635 2.9026 34.1635C2.92549 34.3635 2.90613 34.566 2.84571 34.758C2.78528 34.9501 2.68514 35.1273 2.55184 35.2781C2.41855 35.429 2.25503 35.5501 2.0719 35.6337C1.88877 35.7173 1.69012 35.7615 1.48882 35.7634Z" fill="#ACB9C5"/>
<path fill-rule="evenodd" clip-rule="evenodd" d="M1.47237 66.3277C1.28185 66.3372 1.09139 66.3071 0.912983 66.2396C0.73458 66.1721 0.57208 66.0685 0.435598 65.9352C0.299116 65.8019 0.191626 65.6419 0.119864 65.4651C0.0481023 65.2884 0.0136055 65.0987 0.0185515 64.908C0.0123057 64.5745 0.123743 64.2494 0.333294 63.9898C0.542845 63.7302 0.837145 63.5527 1.16452 63.4885C1.35436 63.4645 1.54707 63.4783 1.73157 63.529C1.91608 63.5797 2.08875 63.6664 2.2397 63.7839C2.39066 63.9015 2.51691 64.0478 2.61123 64.2143C2.70555 64.3807 2.76607 64.5642 2.78933 64.7541C2.81307 64.9451 2.79728 65.139 2.74287 65.3236C2.68846 65.5083 2.59661 65.6797 2.47307 65.8273C2.34953 65.9749 2.19692 66.0955 2.02476 66.1816C1.8526 66.2677 1.66458 66.3174 1.47237 66.3277Z" fill="#ACB9C5"/>
<path fill-rule="evenodd" clip-rule="evenodd" d="M0.00120587 95.6772C-0.00673346 95.4819 0.026242 95.2871 0.0980296 95.1053C0.169817 94.9234 0.278864 94.7586 0.418096 94.6214C0.557328 94.4842 0.723692 94.3776 0.906546 94.3084C1.0894 94.2393 1.28468 94.2091 1.47987 94.2199C1.67506 94.2307 1.86585 94.2822 2.03998 94.371C2.21411 94.4599 2.36773 94.5841 2.49101 94.7359C2.61429 94.8876 2.70452 95.0634 2.75585 95.252C2.80718 95.4407 2.8185 95.6379 2.7891 95.8312C2.76781 96.1642 2.62254 96.477 2.38192 96.7081C2.1413 96.9393 1.82276 97.0719 1.48921 97.0797C1.29739 97.094 1.1047 97.0682 0.923405 97.0039C0.742113 96.9396 0.576238 96.8382 0.43626 96.7063C0.296282 96.5744 0.185295 96.4148 0.1104 96.2376C0.0355048 96.0604 -0.00169903 95.8696 0.00120587 95.6772Z" fill="#ACB9C5"/>
<path fill-rule="evenodd" clip-rule="evenodd" d="M0.0525567 188.277C0.0525567 187.097 0.599903 186.412 1.42088 186.43C1.75875 186.44 2.0815 186.572 2.32977 186.801C2.57803 187.031 2.73508 187.342 2.77202 187.678C2.80495 187.871 2.79263 188.069 2.73601 188.257C2.67938 188.444 2.58003 188.616 2.44575 188.759C2.31146 188.901 2.14587 189.011 1.9621 189.078C1.77832 189.146 1.58134 189.17 1.38664 189.149C0.88594 188.955 0.431502 188.657 0.0525567 188.277Z" fill="#ACB9C5"/>
<path fill-rule="evenodd" clip-rule="evenodd" d="M1.33438 219.781C1.13865 219.769 0.947617 219.717 0.77353 219.626C0.599443 219.536 0.446194 219.41 0.323704 219.257C0.201215 219.104 0.112169 218.927 0.0623586 218.737C0.0125484 218.548 0.00309653 218.35 0.0345382 218.156C0.0892188 217.822 0.267151 217.521 0.533167 217.312C0.799183 217.103 1.13392 217.002 1.47123 217.027C1.80757 217.036 2.12838 217.171 2.36942 217.405C2.61047 217.64 2.75392 217.957 2.77107 218.293C2.7857 218.488 2.759 218.683 2.69267 218.867C2.62635 219.051 2.5219 219.219 2.38623 219.359C2.25056 219.5 2.08673 219.61 1.90545 219.683C1.72418 219.755 1.52954 219.789 1.33438 219.781Z" fill="#ACB9C5"/>
<path fill-rule="evenodd" clip-rule="evenodd" d="M368.345 126.293C368.336 125.956 368.448 125.627 368.662 125.367C368.875 125.106 369.176 124.931 369.508 124.874C369.902 124.845 370.291 124.973 370.592 125.229C370.892 125.485 371.08 125.848 371.115 126.242C371.107 126.436 371.059 126.626 370.976 126.802C370.892 126.977 370.775 127.134 370.63 127.263C370.485 127.392 370.315 127.491 370.131 127.554C369.947 127.616 369.753 127.641 369.559 127.627C369.223 127.605 368.909 127.454 368.683 127.205C368.456 126.956 368.335 126.629 368.345 126.293Z" fill="#ACB9C5"/>
<path fill-rule="evenodd" clip-rule="evenodd" d="M1.35154 127.508C0.975264 126.96 0.63319 126.67 0.547672 126.31C0.462154 125.951 1.0266 125.336 1.59102 125.438C1.69915 125.45 1.80322 125.486 1.89537 125.544C1.98753 125.601 2.06536 125.679 2.123 125.772C2.18065 125.864 2.21658 125.968 2.22812 126.076C2.23966 126.184 2.22649 126.294 2.1896 126.396C2.1554 126.704 1.74493 126.995 1.35154 127.508Z" fill="#ACB9C5"/>
<path fill-rule="evenodd" clip-rule="evenodd" d="M1.45493 158.276C1.04444 157.763 0.685283 157.49 0.565558 157.148C0.529289 157.018 0.528468 156.881 0.563209 156.751C0.597951 156.621 0.666977 156.502 0.763068 156.408C0.859159 156.314 0.978773 156.247 1.10949 156.214C1.24021 156.182 1.37724 156.185 1.50624 156.224C1.68299 156.302 1.83781 156.423 1.9571 156.575C2.0764 156.727 2.15649 156.906 2.19037 157.096C2.15616 157.49 1.8141 157.746 1.45493 158.276Z" fill="#ACB9C5"/>
</svg>
