<svg width="79" height="79" viewBox="0 0 79 79" fill="none" xmlns="http://www.w3.org/2000/svg">
<path d="M77.6113 42.7756L62.3359 62.8146C61.4102 63.6881 60.2915 64.1249 58.98 64.1249C57.6685 64.1249 56.5498 63.6753 55.624 62.7761C54.6982 61.8769 54.2354 60.7722 54.2354 59.462C54.2354 58.1517 54.6982 57.0341 55.624 56.1093L68.3535 39.4615L55.624 22.8137C54.6982 21.8888 54.2354 20.7841 54.2354 19.4995C54.2354 18.215 54.6982 17.1102 55.624 16.1854C56.5498 15.2605 57.6685 14.798 58.98 14.798C60.2915 14.798 61.4102 15.2605 62.3359 16.1854L77.6113 36.1473C78.5371 37.0722 79 38.1769 79 39.4615C79 40.746 78.5371 41.8507 77.6113 42.7756ZM39.5 74.0673C39.4486 74.2215 39.3714 74.5169 39.2686 74.9537C39.1657 75.3904 39.0885 75.6859 39.0371 75.84L38.7671 76.6493L38.3813 77.4585L37.8027 78.0751L36.9927 78.6146L35.9512 78.8844L34.5625 79C33.3281 79 32.1452 78.3577 31.0137 77.0732C29.8822 75.7886 29.4707 74.5555 29.7793 73.3737L39.5 4.93268C40.3743 1.64423 42.8431 0 46.9062 0C48.0378 0 48.7964 0.60374 49.1821 1.81122C49.5679 3.0187 49.5807 4.29041 49.2207 5.62634L39.5 74.0673ZM23.376 62.7761C22.4502 63.6753 21.3315 64.1249 20.02 64.1249C18.7085 64.1249 17.5898 63.6881 16.6641 62.8146L1.38867 42.7756C0.462891 41.8507 0 40.746 0 39.4615C0 38.1769 0.462891 37.0722 1.38867 36.1473L16.6641 16.1854C17.5898 15.2605 18.7085 14.798 20.02 14.798C21.3315 14.798 22.4502 15.2605 23.376 16.1854C24.3018 17.1102 24.7646 18.215 24.7646 19.4995C24.7646 20.7841 24.3018 21.8888 23.376 22.8137L10.6465 39.4615L23.376 56.1093C24.3018 57.0341 24.7646 58.1517 24.7646 59.462C24.7646 60.7722 24.3018 61.8769 23.376 62.7761Z" fill="#FF4C77"/>
</svg>
