<svg width="98" height="98" viewBox="0 0 98 98" fill="none" xmlns="http://www.w3.org/2000/svg">
<path d="M84.392 38.699L84.6183 39.4884L85.4052 39.7231L96.2506 42.9573C96.3214 42.9976 96.3813 43.0548 96.4248 43.124C96.4782 43.2091 96.5042 43.3083 96.4994 43.4084L96.4978 43.444V43.4796V54.6141C96.4968 54.7179 96.463 54.8188 96.4009 54.9024C96.3395 54.9852 96.2535 55.0469 96.1549 55.0785C96.1531 55.0791 96.1513 55.0797 96.1495 55.0802L85.146 58.342L84.3641 58.5738L84.1335 59.356C83.3981 61.8504 82.3979 64.2591 81.1499 66.5411L80.7602 67.2536L81.1439 67.9695L86.5694 78.0915C86.5696 78.0919 86.5699 78.0924 86.5701 78.0928C86.6192 78.186 86.6371 78.2923 86.6212 78.3962C86.6053 78.5006 86.556 78.5973 86.4804 78.6719L86.4741 78.6782L78.6591 86.4855L78.6528 86.4919C78.5781 86.5674 78.4808 86.617 78.3754 86.6331C78.2705 86.6491 78.1634 86.6311 78.0697 86.5819C78.0691 86.5816 78.0685 86.5813 78.0679 86.581L67.9015 81.1598L67.1897 80.7803L66.4807 81.1648C64.2049 82.3988 61.8043 83.3875 59.3193 84.1144L58.5344 84.344L58.3021 85.1281L55.0374 96.1523C55.0368 96.1543 55.0362 96.1562 55.0356 96.1581C55.0041 96.2556 54.9428 96.3413 54.8599 96.4027C54.7759 96.4649 54.6741 96.499 54.5692 96.5H43.5266C43.4217 96.499 43.32 96.4649 43.236 96.4027C43.153 96.3412 43.0916 96.2554 43.0601 96.1577C43.0596 96.1559 43.059 96.1541 43.0584 96.1523L39.7934 85.1596L39.5597 84.373L38.7713 84.1455C36.2646 83.4223 33.8426 82.4334 31.5466 81.1957L30.8385 80.814L30.1288 81.1926L20.028 86.581C20.0276 86.5812 20.0272 86.5814 20.0268 86.5816C19.933 86.631 19.8256 86.6492 19.7205 86.6331C19.615 86.617 19.5178 86.5674 19.4431 86.4919L19.4368 86.4855L11.6218 78.6782L11.6154 78.6719C11.5399 78.5973 11.4906 78.5006 11.4746 78.3962C11.4587 78.2918 11.4768 78.185 11.5265 78.0915L11.5313 78.0824L16.8938 67.8251L17.2721 67.1016L16.8699 66.3912C15.5592 64.0761 14.5061 61.6247 13.7293 59.0808L13.4948 58.3129L12.7257 58.0821L1.84825 54.8189C1.84702 54.8185 1.84579 54.8181 1.84456 54.8177C1.74525 54.7862 1.65861 54.7243 1.59684 54.6411C1.53479 54.5575 1.50097 54.4566 1.5 54.3529V43.3209C1.50097 43.2173 1.53479 43.1163 1.59684 43.0327C1.65876 42.9493 1.74566 42.8873 1.84528 42.8559C1.84627 42.8556 1.84726 42.8553 1.84825 42.855L12.6627 39.591L13.4369 39.3573L13.6672 38.5821C14.4356 35.995 15.489 33.501 16.8079 31.146L17.2112 30.4258L16.8187 29.6997L11.5248 19.9059C11.4764 19.8132 11.4588 19.7076 11.4746 19.6043C11.4904 19.501 11.5389 19.4052 11.6131 19.3309L19.5542 11.5935L19.5641 11.5838L19.5739 11.5739C19.6486 11.4984 19.7458 11.4488 19.8513 11.4327L19.625 9.94988L19.8513 11.4327C19.9557 11.4168 20.0624 11.4346 20.1557 11.4833L29.9591 16.7719L30.6831 17.1625L31.4017 16.7619C33.7692 15.4421 36.2765 14.3896 38.8772 13.6241L39.6539 13.3954L39.889 12.6205L43.1565 1.84817C43.1568 1.84736 43.157 1.84655 43.1573 1.84574C43.1884 1.74679 43.2502 1.65993 43.3341 1.5978C43.4181 1.53561 43.5198 1.50148 43.6246 1.5005H54.6721H54.6889L54.7057 1.50012C54.8107 1.49777 54.9136 1.52878 54.9996 1.58849C55.08 1.64433 55.1417 1.7225 55.1773 1.81282L58.4354 12.5866L58.669 13.359L59.4422 13.5898C62.0213 14.3595 64.5072 15.4118 66.8546 16.7276L67.5705 17.1288L68.2945 16.7423L78.2641 11.4195C78.2644 11.4193 78.2648 11.4192 78.2652 11.419C78.359 11.3695 78.4664 11.3513 78.5715 11.3674C78.677 11.3835 78.7743 11.4331 78.849 11.5086L78.8531 11.5127L86.668 19.3527L86.6766 19.3613C86.7522 19.4358 86.8015 19.5326 86.8174 19.637C86.8334 19.7413 86.8153 19.848 86.7657 19.9414C86.7657 19.9415 86.7656 19.9416 86.7656 19.9417L81.4047 29.967L81.0244 30.6784L81.4081 31.3879C82.664 33.7102 83.6645 36.1615 84.392 38.699ZM38.3217 65.1865C41.5259 67.3253 45.2927 68.4668 49.146 68.4668C54.3131 68.4668 59.2688 66.4162 62.9229 62.7657C66.5771 59.1151 68.6303 54.1636 68.6303 49.0003C68.6303 45.1498 67.4873 41.3859 65.3462 38.1846C63.2051 34.9834 60.162 32.4885 56.6018 31.0153C53.0417 29.5421 49.1244 29.1567 45.3451 29.9077C41.5658 30.6587 38.0941 32.5124 35.3691 35.2348C32.6441 37.9571 30.7881 41.4258 30.0362 45.2022C29.2843 48.9787 29.6702 52.893 31.1451 56.4503C32.62 60.0075 35.1176 63.0476 38.3217 65.1865Z" fill="#F3F6FB" stroke="#4E6A98" stroke-width="3"/>
</svg>
