<svg width="73" height="78" viewBox="0 0 73 78" fill="none" xmlns="http://www.w3.org/2000/svg">
<path d="M35.7587 71.6164L36.347 69.4209C37.9205 69.5224 39.1138 69.49 39.9267 69.3236C40.7696 69.1653 41.4542 68.8205 41.9808 68.2892C42.5153 67.7281 42.9266 66.9099 43.2148 65.8346C43.4869 64.8189 43.6596 63.6967 43.7327 62.4677C43.8139 61.2088 43.8266 59.7875 43.7707 58.2038L43.6616 51.9796L22.782 46.3849L20.082 50.3677C18.7131 52.37 17.7571 53.9067 17.2139 54.9778C16.6708 56.0488 16.2752 57.0474 16.0271 57.9734C15.5469 59.7656 15.6428 61.2 16.3148 62.2765C17.0167 63.361 18.2725 64.2898 20.0823 65.0628L19.4941 67.2583L0.361842 62.1319L0.950124 59.9364C2.69492 60.1158 4.40378 59.5331 6.07669 58.1885C7.77948 56.8519 9.62955 54.7864 11.6269 51.992L43.6015 7.39805L50.6808 9.29496L52.5285 63.3358C52.6211 65.8578 52.7721 67.8032 52.9816 69.1719C53.221 70.5487 53.637 71.6847 54.2296 72.5798C54.8221 73.4749 55.7464 74.2668 57.0026 74.9556L56.4143 77.1511L35.7587 71.6164ZM25.0362 42.8109L43.7652 47.8293L42.9958 16.6483L25.0362 42.8109Z" fill="#F3F6FB"/>
<path d="M35.7587 71.6164L34.7928 71.3576L34.5339 72.3235L35.4999 72.5824L35.7587 71.6164ZM36.347 69.4209L36.4113 68.423L35.5932 68.3702L35.381 69.1621L36.347 69.4209ZM39.9267 69.3236L39.7421 68.3408L39.7342 68.3423L39.7263 68.3439L39.9267 69.3236ZM41.9808 68.2892L42.691 68.9932L42.698 68.9862L42.7048 68.979L41.9808 68.2892ZM43.7327 62.4677L42.7348 62.4033L42.7345 62.4082L43.7327 62.4677ZM43.7707 58.2038L42.7709 58.2213L42.771 58.2302L42.7713 58.239L43.7707 58.2038ZM43.6616 51.9796L44.6615 51.9621L44.6483 51.2087L43.9205 51.0137L43.6616 51.9796ZM22.782 46.3849L23.0408 45.419L22.3535 45.2348L21.9542 45.8238L22.782 46.3849ZM20.082 50.3677L20.9075 50.9321L20.9097 50.9288L20.082 50.3677ZM17.2139 54.9778L16.3221 54.5255L17.2139 54.9778ZM16.3148 62.2765L15.4665 62.806L15.4708 62.813L15.4753 62.8198L16.3148 62.2765ZM20.0823 65.0628L21.0483 65.3217L21.2727 64.4839L20.4752 64.1432L20.0823 65.0628ZM19.4941 67.2583L19.2352 68.2243L20.2012 68.4831L20.46 67.5172L19.4941 67.2583ZM0.361842 62.1319L-0.604084 61.8731L-0.862903 62.839L0.103023 63.0978L0.361842 62.1319ZM0.950124 59.9364L1.05239 58.9416L0.204743 58.8545L-0.0158017 59.6776L0.950124 59.9364ZM6.07669 58.1885L5.4592 57.4019L5.45022 57.4091L6.07669 58.1885ZM11.6269 51.992L10.8142 51.4093L10.8134 51.4105L11.6269 51.992ZM43.6015 7.39805L43.8603 6.43212L43.1919 6.25305L42.7888 6.81534L43.6015 7.39805ZM50.6808 9.29496L51.6802 9.26079L51.6549 8.5207L50.9396 8.32904L50.6808 9.29496ZM52.5285 63.3358L51.5291 63.3699L51.5291 63.3724L52.5285 63.3358ZM52.9816 69.1719L51.9932 69.3232L51.9947 69.3332L51.9964 69.3432L52.9816 69.1719ZM57.0026 74.9556L57.9685 75.2144L58.1717 74.4562L57.4834 74.0788L57.0026 74.9556ZM56.4143 77.1511L56.1555 78.117L57.1214 78.3758L57.3802 77.4099L56.4143 77.1511ZM25.0362 42.8109L24.2118 42.245L23.4115 43.4108L24.7774 43.7768L25.0362 42.8109ZM43.7652 47.8293L43.5064 48.7953L44.7979 49.1413L44.7649 47.8047L43.7652 47.8293ZM42.9958 16.6483L43.9955 16.6236L43.9193 13.536L42.1713 16.0823L42.9958 16.6483ZM36.7246 71.8753L37.3129 69.6798L35.381 69.1621L34.7928 71.3576L36.7246 71.8753ZM36.2826 70.4189C37.8805 70.5219 39.181 70.497 40.1272 70.3033L39.7263 68.3439C39.0466 68.483 37.9606 68.5229 36.4113 68.423L36.2826 70.4189ZM40.1114 70.3064C41.1235 70.1163 42.0014 69.6889 42.691 68.9932L41.2705 67.5853C40.907 67.952 40.4157 68.2143 39.7421 68.3408L40.1114 70.3064ZM42.7048 68.979C43.3942 68.2553 43.867 67.2642 44.1807 66.0934L42.2488 65.5757C41.9863 66.5556 41.6364 67.2009 41.2567 67.5995L42.7048 68.979ZM44.1807 66.0934C44.473 65.0026 44.6544 63.8124 44.731 62.5271L42.7345 62.4082C42.6647 63.5809 42.5008 64.6353 42.2488 65.5757L44.1807 66.0934ZM44.7307 62.532C44.8145 61.2329 44.8269 59.7775 44.7701 58.1685L42.7713 58.239C42.8263 59.7975 42.8134 61.1847 42.7348 62.4033L44.7307 62.532ZM44.7706 58.1863L44.6615 51.9621L42.6618 51.9971L42.7709 58.2213L44.7706 58.1863ZM43.9205 51.0137L23.0408 45.419L22.5232 47.3508L43.4028 52.9455L43.9205 51.0137ZM21.9542 45.8238L19.2543 49.8066L20.9097 50.9288L23.6097 46.946L21.9542 45.8238ZM19.2565 49.8033C17.8825 51.8131 16.8959 53.3939 16.3221 54.5255L18.1058 55.43C18.6182 54.4196 19.5437 52.9269 20.9075 50.9321L19.2565 49.8033ZM16.3221 54.5255C15.7551 55.6436 15.331 56.7074 15.0612 57.7145L16.993 58.2322C17.2194 57.3873 17.5866 56.4541 18.1058 55.43L16.3221 54.5255ZM15.0612 57.7145C14.5427 59.6497 14.591 61.4035 15.4665 62.806L17.1631 61.7469C16.6945 60.9964 16.5511 59.8815 16.993 58.2322L15.0612 57.7145ZM15.4753 62.8198C16.3282 64.1377 17.7861 65.1694 19.6895 65.9825L20.4752 64.1432C18.7589 63.4101 17.7051 62.5842 17.1543 61.7331L15.4753 62.8198ZM19.1164 64.804L18.5281 66.9995L20.46 67.5172L21.0483 65.3217L19.1164 64.804ZM19.7529 66.2924L0.620661 61.166L0.103023 63.0978L19.2352 68.2243L19.7529 66.2924ZM1.32777 62.3907L1.91605 60.1952L-0.0158017 59.6776L-0.604084 61.8731L1.32777 62.3907ZM0.847856 60.9311C2.91065 61.1432 4.87384 60.4383 6.70317 58.968L5.45022 57.4091C3.93371 58.628 2.47919 59.0883 1.05239 58.9416L0.847856 60.9311ZM6.69414 58.9752C8.50224 57.5559 10.4162 55.4056 12.4405 52.5735L10.8134 51.4105C8.84295 54.1672 7.05672 56.148 5.45924 57.4019L6.69414 58.9752ZM12.4396 52.5747L44.4141 7.98076L42.7888 6.81534L10.8142 51.4093L12.4396 52.5747ZM43.3426 8.36398L50.422 10.2609L50.9396 8.32904L43.8603 6.43212L43.3426 8.36398ZM49.6814 9.32913L51.5291 63.3699L53.5279 63.3016L51.6802 9.26079L49.6814 9.32913ZM51.5291 63.3724C51.6222 65.9071 51.7749 67.8976 51.9932 69.3232L53.9701 69.0206C53.7693 67.7088 53.6199 65.8084 53.5278 63.2991L51.5291 63.3724ZM51.9964 69.3432C52.2526 70.8168 52.7077 72.0924 53.3957 73.1318L55.0634 72.0278C54.5663 71.2769 54.1894 70.2806 53.9669 69.0006L51.9964 69.3432ZM53.3957 73.1318C54.1027 74.1998 55.169 75.0907 56.5218 75.8324L57.4834 74.0788C56.3239 73.443 55.5415 72.75 55.0634 72.0278L53.3957 73.1318ZM56.0367 74.6968L55.4484 76.8923L57.3802 77.4099L57.9685 75.2144L56.0367 74.6968ZM56.6731 76.1852L36.0175 70.6505L35.4999 72.5824L56.1555 78.117L56.6731 76.1852ZM24.7774 43.7768L43.5064 48.7953L44.024 46.8634L25.2951 41.845L24.7774 43.7768ZM44.7649 47.8047L43.9955 16.6236L41.9961 16.6729L42.7655 47.854L44.7649 47.8047ZM42.1713 16.0823L24.2118 42.245L25.8607 43.3769L43.8202 17.2142L42.1713 16.0823Z" fill="#546D98"/>
</svg>
